<svg xmlns="http://www.w3.org/2000/svg" viewBox="0 0 200 200">
	<g id="inanity-logo">
		<circle cx="100" cy="100" r="90" fill="#ff6d6a"/>
		<path d="m92.5 32.8c0.689 3.17 1.04 6.45 1.04 9.74-8e-4 9.16-2.7 18-7.51 24.5h0.0104c0.0218-0.025 0.0437-0.05 0.0656-0.0749-2.31 3.04-3.56 6.75-3.57 10.6 1.62e-4 9.66 7.84 17.5 17.5 17.5 9.66-1.6e-4 17.5-7.83 17.5-17.5-2.6e-4 -0.12-2e-3 -0.241-5e-3 -0.361l5.2e-4 4e-3 -5.2e-4 -0.0103c-7e-3 -0.334-0.0232-0.667-0.0491-0.999-0.455-17.8-9.86-34.1-25-43.4zm7.54-32.8a100 100 0 0 0-100 100 100 100 0 0 0 100 100 100 100 0 0 0 100-100 100 100 0 0 0-100-100zm0 20a80 80 0 0 1 80 80 80 80 0 0 1-51.6 74.7 15 15 0 0 1-0.198 0.0496 80 80 0 0 1-5.3e-4 0 15 15 0 0 1-1e-3 0 15 15 0 0 1-3.17 0.345 15 15 0 0 1-3.34-0.376 15 15 0 0 1-3.17-1.11 15 15 0 0 1-2.84-1.79 15 15 0 0 1-2.38-2.38 15 15 0 0 1-1.79-2.84 15 15 0 0 1-1.11-3.17 15 15 0 0 1-0.376-3.34v-45.1a5 5 0 0 0-5-5h-10a5 5 0 0 0-5 5v45.1a15 15 0 0 1-0.376 3.34 15 15 0 0 1-1.11 3.17 15 15 0 0 1-1.79 2.84 15 15 0 0 1-2.38 2.38 15 15 0 0 1-2.84 1.79 15 15 0 0 1-3.17 1.11 15 15 0 0 1-3.34 0.376 15 15 0 0 1-3.17-0.345 15 15 0 0 1-0.0011 0 80 80 0 0 0-5.29e-4 0 15 15 0 0 1-0.198-0.0496 80 80 0 0 1-51.6-74.7 80 80 0 0 1 80-80z"/>
	</g>
</svg>
