<svg xmlns="http://www.w3.org/2000/svg" viewBox="0 0 502.1 610">
	<g id="goat-icon">
		<path d="m185.3 0c-2 0.1-3 2.9-3 8.3 0 16.4 10.5 39.1 24.1 51.8 19.4 18.3 49.6 26.8 78.6 22.2 28.1-4.5 47.6-4.3 61.4 0.6 6.8 2.4 11.9 6.8 11.9 10.2 0 5.3-17.3 10.4-35.2 10.5-25.2 0.1-39.2 5.5-45.6 17.7-1.9 3.7-2.1 3.8-10.9 2.8-4.9-0.5-9.1-1.1-9.3-1.2-0.8-0.7 4.2-11 7.3-15.1 1.8-2.4 3-4.7 2.6-5.1-0.4-0.4-5.7-1.3-11.8-1.9-34.6-3.8-64.9-22.9-78.6-49.6-3-5.8-4.5-7.6-6.2-7.1-1.3 0.4-9.8 2.2-18.9 4C97.5 59 81.8 54.5 66.3 23.6 59.8 10.6 55.5 5.3 53 6.9c-2.3 1.4-1.6 19.6 1.2 30.7 7 27.4 20.3 43.5 43.7 52.9 7.3 2.9 9.3 3.1 40.3 3.1l32.7 0 8 4c9.2 4.6 13 9.7 10 13.3-1 1.2-9.1 5.7-17.9 9.9-23.8 11.3-30 17.9-32.2 34.4-0.7 5.4-1.7 7.5-4.2 9.1-5.9 3.9-24.5 22.3-32.7 32.6-8.4 10.4-25.5 36.1-44.9 67.5-8.3 13.4-14.8 21.9-24.1 31.7-7 7.4-13.8 15.4-15.1 17.8-1.2 2.4-2.8 9.3-3.5 15.3-1.2 10.8-2.8 15-11.2 29.4-3.5 6-3.6 6.7-2.1 12.3 0.9 3.3 4 9.1 6.9 12.9 2.9 3.9 6.7 9.7 8.4 13.1 1.7 3.3 5.9 8.6 9.2 11.7 3.4 3.1 6.1 6.7 6.1 7.9 0 4.9-2.9 12.2-10 25-8.8 15.9-9 18.8-1.3 18.3 6.8-0.5 15.9-4.9 19.3-9.2 3.7-4.7 4.3-3.3 2.4 5.1-0.9 4-1.6 13-1.7 20.1-0.1 10.5 0.3 13.4 2.1 15.2 5.4 5.4 17.5-5.6 27.2-25 3.4-6.8 6.5-12.7 6.8-13.1 1.6-1.7 3.1 4.3 3.1 12.9 0 5.3 0.6 9.9 1.2 10.3 1.9 1.2 7.6-6.5 15-20.1 8.4-15.6 15.5-24.7 21.3-27.4 2.9-1.3 17.7-3.4 41.1-5.7 39.5-3.9 53.2-6 66.6-10.2 16.5-5.2 25.3-10.9 30.6-19.8 3.2-5.3 3.5-7.2 3.3-17.3-0.1-6.3 0.4-12.1 1.2-13 2-2.4 8.4-2.1 10.5 0.4 2.3 2.8 3.3 21.3 1.4 28.1-3.5 13-17.3 26-34.3 32.4-17 6.4-32.7 9.2-76.2 13.5-12.7 1.3-17.4 2.3-20.5 4.4-2.8 1.9-9.4 12.3-21.3 33.5-34.9 61.9-44.4 84.6-36.2 85.7 4.3 0.6 14.3-5 28.3-15.8 6.8-5.3 11.9-8.8 11.3-7.7-0.3 0.4-3.3 4.6-7.7 11.4-18.2 28.3-7.2 32.5 20.6 42.2C172.4 603.5 211 610 250 610 306.4 610 361.9 596.4 411.7 570.4 416.5 567.6 429 559 423.8 548.9c-2.4-4.3-3.3-6.8-2.7-7.5 1.5-1.4 16.3 9.1 20.3 9.8 4.1 0.8 13.6-6.3-8.6-80-6.5-21.6-10.5-39.5-10.5-41 0-1.5 1-3.1 2.1-3.6 1.5-0.6 6.7 3.9 17.7 15.3 16.6 17.1 21.6 20.2 25.2 15.5 3.1-4.1 1.2-18.1-6.9-50.5-11.8-47.6-16.7-76.5-18.9-112.3-0.8-12.9-1.2-15-3.2-15-4.3 0-23.2-5.3-30.2-8.6-12.5-5.7-22.6-17-25.2-28.1l-1-4 3.2 2.9c6.4 5.8 20.2 13.7 28.9 16.7 12.9 4.4 27.2 4.1 39.6-0.7 5.1-2 14.7-5.4 21.2-7.5 19.7-6.4 28.2-13 27.3-21-0.3-2.9-2.1-4.4-9.5-8.3-5-2.6-13.9-8.9-19.9-14-24.1-20.7-34.6-25.5-52.8-24.3-6.3 0.4-13.1 1.1-15 1.6-3 0.7-3.9 0.2-6.5-3.9l-3-4.8 10.4-11c22.2-23.5 38.3-48.7 42.8-66.9 1.9-7.7 2-10.2 0.6-17.9-2.3-12.4-9.5-25.4-18.8-34.1-9.6-8.9-16.8-13.1-30.1-17.8-9.6-3.3-12.2-3.7-29.2-3.7-16.9 0-20.7 0.5-40 5-68.1 16-86.7 17.5-106.6 8.4C215.1 33.6 208.6 27.6 201 16.3 193.4 5.2 188.2-0.2 185.3 0ZM264.6 215.7c17.2-0.1 22.2 1.3 30.6 6.9 9.6 6.4 14.5 16.7 14.5 30.3 0 8.8-0.6 11.4-4 18.1-4.4 8.5-12.6 15.3-21.7 17.8-7.2 2-43.8 1.6-49.7-0.5-16.4-5.9-24.1-17.2-24.2-35.5-0.1-15.7 6.2-26.6 19.6-33.7 4.9-2.6 7.9-3 27-3.4 3-0.1 5.7-0.1 8.2-0.1zm-4.3 25.2c-26.9 0-28.8 0.2-31.3 2.7-2 2-2.7 4.4-2.7 10 0 5.6 0.6 8 2.7 10 2.5 2.5 4.4 2.7 31.9 2.7 28.7 0 29.3-0.1 31.3-3 3.1-4.5 2.8-16.3-0.6-19.7-2.5-2.5-4.4-2.7-31.3-2.7zM84.2 318.4c5.5-0.1 8.2 2 9.8 6.6 1.6 4.5 0.4 9-2.9 11.8-1.1 1-6.5 2.9-11.8 4.3-12.8 3.3-13.9 3.2-18.5-1.3-7.8-7.8-4-14.9 10.1-18.9 5.7-1.6 10-2.4 13.3-2.5z"/>
	</g>
</svg>
