<svg xmlns="http://www.w3.org/2000/svg" viewBox="0 0 1000 1000">
	<g id="oni-icon">
		<path d="M469.2 988.5C432.5 980.4 419.3 972.6 403.5 950 400.2 945.3 389.3 931.3 379.3 918.8 369.2 906.3 361 895.9 361 895.6c0-1.2 20.3-15.7 20.9-15 1.6 1.7 24.9 33.3 35 47.2 13.1 18.1 12.9 18 27.7 14.7 19.2-4.3 33.4-5.8 54.3-5.9 21.7 0 33 1.1 53.2 5.4 11 2.3 14.3 2.7 16.8 1.8 2.2-0.8 5.5-4.4 12.2-13.7 14.1-19.5 36.8-49.6 37.6-49.9 0.5-0.2 17.2 12.6 19.9 15.1 0.2 0.2-3.3 4.6-20.1 25.2-4.9 6-12.2 16-16.3 22.2-4.1 6.2-10 14-13.1 17.3-18.4 19.8-48.9 30.8-87.8 31.5-16.2 0.3-17.7 0.1-32.3-3.1zM446.5 899.9c-1.1-0.6-4.8-4.7-8.2-9.2l-6.2-8.2 34-0.3c18.7-0.1 49.1-0.1 67.5 0l33.5 0.3-4.5 6.4c-2.5 3.5-5.7 7.7-7.2 9.4-3 3.4-2.8 3.4-22.9 0.2-15.2-2.4-49.7-2.4-65 0-15.6 2.5-18.7 2.7-21 1.5zM300.5 885.4c1.6-2.2 6.4-8.2 10.6-13.4 21.8-27.1 30.1-39 35.4-50.2 2.9-6.2 6.5-12.7 8-14.4 5.4-6.4 14.6-8.8 24.1-6.3 4.3 1.1 16.5 7 16.5 7.9 0 1.3-19.4 22.3-27.1 29.2-22 20-48.9 39.7-67.9 49.8-2.5 1.3-2.5 1.3 0.4-2.6zm396 0.2c-18-8.7-48.3-31.7-71.8-54.6-8.7-8.5-18.7-20.1-18.7-21.7 0-1.2 5.6-4.9 10.5-7 4.9-2.1 16-2.3 23.4-0.5l5.4 1.4 6 12.5c12.9 27.1 22.9 41.9 41.7 61.4 6.2 6.5 11.1 11.8 10.9 11.8-0.2 0-3.5-1.5-7.4-3.4zM421 841.5c0-0.9 17.1-23.8 20.3-27.2 2.1-2.2 4-3.2 5.9-3.2 1.6 0 9.7 2.3 18.1 5 20.2 6.6 28.3 8.3 36.6 7.4 8.4-0.9 32.8-6.7 36.8-8.8 5.2-2.7 12.1-3.8 15.7-2.7 3.6 1.2 7.6 5 9.8 9.6 0.8 1.7 4.5 6.7 8.1 11.2 3.6 4.5 6.6 8.4 6.6 8.7 0 0.3-35.5 0.5-79 0.5-43.4 0-79-0.2-79-0.5zM304.5 810.8C304 809.4 294 768.1 294 767.4 294 767.2 294.9 767 295.9 767c2.1 0 12.9 12.7 16.1 19.1 2.6 5.1 2.5 8.9-0.6 18.2-2 6.1-3 7.8-4.5 7.8-1.1 0-2.2-0.6-2.4-1.2zm385.5-4.4c-4.3-7.5-5-14.4-2.1-20 1.1-2.2 5.1-7.8 8.9-12.4L703.5 765.5l0.3 5.5c0.2 3-0.2 8.4-0.8 12-1.2 6.8-7.5 26.9-8.9 28.3-0.5 0.5-2.3-1.8-4.1-4.9zM485.8 782.6C478.3 779.9 471.5 775.4 452.5 760.1 437.8 748.3 416 729.2 416 728c0-0.8 7.3-4.1 13-5.8 6.6-2 19.2-3.2 35.3-3.2 8.9 0 17.2-0.3 18.4-0.6l2.3-0.6v-60.9c0-49.1 0.3-61.5 1.4-64.1C487.7 589.6 498 579 499.8 579c0.5 0 3 1.4 5.5 3.1 3.4 2.2 5.4 4.6 7.4 8.8L515.5 596.5l-0.4 60.1c-0.3 49.8-0.1 60.3 1 61 0.7 0.5 11.9 1.2 24.9 1.6 23.6 0.7 32.3 1.8 40.6 5.3l3.9 1.7-14.5 14.2c-39.7 38.8-62.7 50.2-85.2 42.3zM612.6 755.1C620.8 747 625 739.3 625 732.7c0-6.2-3.4-18.9-6.7-25-4.1-7.6-11.8-15-19.8-19-9-4.5-16.2-6.4-30.8-8.2-6.5-0.8-12-1.6-12.3-1.9-0.2-0.2-0.3-8-0.2-17.2l0.3-16.8 6.9 6.3c9.5 8.6 16.9 13.2 26.7 16.5 7 2.4 10 2.8 18.9 2.9 16.1 0.1 28.7-3.9 44-13.8 22.5-14.5 35.4-35.7 41-67 1.2-6.5 2.8-12.9 3.6-14.2 0.8-1.3 3.6-3.2 6.2-4.4 11.5-5.2 16.1-7.5 16.1-8.1 0-0.7-15.5-32.7-16.2-33.4-0.2-0.2-10.5 3.7-22.8 8.7C622.2 561.3 600.8 566.8 572 565.7c-22.1-0.8-34.1-5-44.6-15.3-4.2-4.1-7.2-9.2-15.9-26.2C505.6 512.5 500.4 503 500 503c-0.5 0-5 8.4-10 18.8-10.6 21.6-15.6 28.6-24.8 34.7-11.9 7.9-22.5 10.1-44 9.3-31-1.2-63-10-101.5-27.9-8.2-3.8-16.5-7.6-18.2-8.4l-3.2-1.4-8.4 16.8c-4.6 9.3-8.1 17.3-7.8 17.8 0.4 0.5 2.9 1.8 5.6 2.8 6.4 2.4 12.5 8.1 15.8 14.8 1.4 2.9 4 10.6 5.7 17.1 6.3 24.3 14.4 38.9 29.1 52.4 15.7 14.4 41.6 22.7 63.3 20.1 11.6-1.4 25.8-9.1 38.3-20.7C441.9 646.8 444.1 645 444.4 645 444.7 645 445 652.4 445 661.5c0 16.3 0 16.5-2.2 17-1.2 0.3-7.3 1.4-13.5 2.6-6.2 1.1-14.3 3-18 4.1-23.5 7.2-36.1 24.3-36.2 49 0 8.3 1.9 11.3 11.7 18.9 6.2 4.8 7 5.7 5.8 6.9-1.2 1.2-2.5 1.2-8.2 0.2-24.6-4.3-71.9-12.5-77.8-13.6-3.8-0.7-8-1.8-9.2-2.4-2.4-1.3-2.5-1.8-4.3-12.7-2.8-17.4-8.3-35.8-22.8-75.7C252.4 606.7 246.3 581.1 241.3 533c-2.7-25.9-2.5-90.3 0.5-124.5 3.1-36.8 3.4-39.1 4.2-40.5 0.5-0.8 4.3 0.5 13.1 4.8 30.4 14.7 56.3 17.9 80.9 10 47.8-15.4 74.5-71.7 53.6-113-1.9-3.7-6.8-11.9-11-18.2C375.8 241.3 374.1 238 375.4 238c0.2 0 8.2-1.3 17.8-3 64.1-11 130-11.8 196.9-2.5 19.7 2.8 36.7 5.8 37.7 6.8 0.4 0.4-2.5 3.9-6.3 7.9-7.6 7.9-11.7 13.4-15.8 21.6-6.9 13.7-8.5 32.3-4.2 49.3 9.6 37.8 33.7 60.7 71 67.3 22.9 4.1 48-1.1 73-15.1 4.3-2.4 8.2-4.4 8.6-4.4 0.7 0 3.3 20.1 5.6 43.8 1.7 17.7 2 83.1 0.4 105-3.2 45.3-10.4 83.2-22.5 118.2-7 20.4-14.9 45-26.1 82-4.8 15.7-9 28.9-9.4 29.3-0.4 0.5-20.9 4.4-45.6 8.7-24.7 4.3-46.2 8.1-47.8 8.4-2.7 0.5-2.4 0 4.1-6.4zM341 454.6c32.3-5.4 57.9-18.2 81.8-41 23.9-22.8 39.7-50.2 51.6-89.6 3.5-11.7 10.9-43.1 10.3-43.7-0.4-0.4-37.9-6.3-38.2-6-0.1 0.1-1.8 6.7-3.9 14.7-14.6 57-29.8 84.5-58.5 105.9-14.3 10.6-33.6 18.7-50.9 21.2-13.7 2-34.5 0.6-53.6-3.6l-3-0.7-5.1 18.7-5.1 18.7 2.6 1c4.4 1.7 19.5 4.8 28.3 5.8 10.5 1.2 32.7 0.5 43.8-1.3zm378-1.2c8-1.4 14.6-2.6 14.7-2.7 0.4-0.4-9.8-37.2-10.5-37.9-0.4-0.4-5.4 0.2-11.2 1.4-8.6 1.8-13.8 2.2-29 2.2-16.9 0-19.4-0.2-28.5-2.7-32.2-8.6-60.5-32.5-77.3-65.4-8.6-16.8-14.8-35.3-20.3-60.2-1.6-7.4-3.1-13.6-3.3-13.8-0.3-0.3-38.9 5.6-39.4 6-0.3 0.3 6.3 25.9 10.8 42.1 15.5 55.6 48.7 98.9 91.3 119.1 30.7 14.5 64.2 18.4 102.5 11.8zM220.1 711.2c-1.5-1.5-3.8-5.4-5-8.7-1.2-3.3-8.3-30.4-15.7-60.4C181.3 569 178.4 562.1 155.8 537.2 145.8 526.1 139.2 511.3 137.1 495.5 135.3 481.6 131 420.8 131 408.8c0-5.6 2.3-5.6 12.1-0.2 12.9 7.2 15.5 9.2 29.4 23.5 16.5 17 25.3 27.3 25.9 30.1 0.3 1.2 0.7 12.8 1 25.7 1.6 71.8 15.5 140.2 41.1 202.1 6.4 15.5 6.6 14.7-4.8 20.4-8.5 4.3-11.9 4.4-15.6 0.7zm543.8-1c-3.6-2.1-7.4-4.2-8.4-4.8-1.6-1-0.9-3.3 8.3-28 5.5-14.8 11.9-32.7 14.1-39.9 13.2-42.4 20.4-88.7 21.7-139.5 0.7-26.2 1.7-34.6 4.8-40.8 1.6-3.1 7.5-9.7 17.3-19.2 22.2-21.6 27-25.5 36.4-29.8 10.2-4.7 12.3-4.3 11.4 2.2-0.3 2.3-1 10.5-1.6 18.2-3.3 44.3-6.4 73.7-8.6 81.4-3 10.6-9.1 20.9-17.7 30-18 19-25.9 36.8-37.5 84.5-20 82.1-20 82.1-24.2 86.6-3.8 4-7.8 3.8-16-0.8zM374.1 625.5c-5.2-4.7-8.3-12.2-8.9-21.2-0.3-4-0.1-7.3 0.4-7.3 2.9 0 30.1 6.5 31.2 7.5 1.1 1 0.9 2.3-0.8 7.6-2.8 8.3-5.5 12.6-9.4 15-4.7 2.8-8 2.4-12.5-1.6zm239.2 2c-2.7-1.9-5.4-6.2-9.7-15.7l-3.4-7.5 16.7-3.6C626.1 598.6 634.2 597 634.9 597c1.8 0 0.5 10.7-2.1 17.8C630 622.3 623.4 629 618.9 629c-1.9 0-4.4-0.7-5.6-1.5zM302.5 347C288.8 345.1 280 340.8 253 322.8 194.1 283.6 157.1 254.1 117.9 215 56.4 153.7 22.3 97.7 5.5 30.7 0 8.7 0.5 8.2 12.4 24.7 44 68.4 67.1 98 86.3 119.6 151.2 192.4 213.1 230.1 315.4 258.9c20.3 5.7 22.9 6.8 30.4 12 13.1 9.2 17.9 21 14.8 36.1C354.7 335.1 331.5 351.1 302.5 347ZM678 346.9C664 344.6 649.9 333.8 643.2 320 639.6 312.7 639.5 312.2 639.5 301c0-10.5 0.2-12 2.8-17.1 3.3-6.8 9.5-12.7 17.4-16.7 3.2-1.6 20.2-7.5 37.8-13 36.2-11.4 49.8-16.1 66.9-23.3C828.3 204 884.5 158.8 936.4 92.5 946.5 79.6 961.7 59.3 984.5 28.3 995.2 13.7 999 9.7 999 13.1 999 15.7 986.6 57.5 982.9 67.5 952 150.1 885.1 225.9 773 305.2c-20.5 14.5-44.7 30.2-52.5 34.1-15.4 7.7-27.9 9.9-42.5 7.6z"/>
	</g>
</svg>
