<svg xmlns="http://www.w3.org/2000/svg" viewBox="0 0 1000 1000">
	<g id="oni-icon">
		<path d="M 469.20566,988.52468 C 432.53351,980.39358 419.2922,972.63096 403.4911,950 400.22698,945.325 389.33116,931.27741 379.27817,918.78312 369.22518,906.28884 361,895.87455 361,895.64025 c 0,-1.21436 20.27727,-15.74942 20.9397,-15.0099 1.5631,1.74501 24.91487,33.25296 35.00972,47.23773 13.07226,18.10949 12.87996,18.00775 27.73259,14.67323 19.22978,-4.31721 33.40022,-5.84822 54.31799,-5.86862 21.7386,-0.0212 33.03214,1.11661 53.21696,5.36157 11.03008,2.31968 14.31535,2.67614 16.77187,1.81979 2.24404,-0.78228 5.48739,-4.42125 12.21902,-13.7095 14.1365,-19.50542 36.83014,-49.61625 37.60093,-49.89041 0.49203,-0.175 17.23877,12.55469 19.89401,15.12203 0.20228,0.19558 -3.29228,4.58493 -20.07593,25.21642 -4.88023,5.99908 -12.22399,15.97803 -16.31948,22.17546 -4.09548,6.19742 -9.97088,13.99485 -13.05643,17.32761 -18.37172,19.84365 -48.94708,30.82525 -87.75095,31.51706 -16.22846,0.28932 -17.69412,0.14917 -32.29434,-3.08804 z M 446.5,899.93118 c -1.1,-0.57364 -4.79541,-4.73033 -8.21202,-9.23708 l -6.21202,-8.1941 34.03505,-0.26321 c 18.71928,-0.14477 49.09471,-0.14477 67.50095,0 l 33.46591,0.26321 -4.50615,6.39872 c -2.47838,3.5193 -5.69609,7.73423 -7.15046,9.36651 -2.99984,3.36682 -2.77743,3.36512 -22.92126,0.17507 -15.23631,-2.41287 -49.70514,-2.41821 -65,-0.0101 -15.6076,2.45738 -18.73706,2.68106 -21,1.50095 z M 300.45255,885.41679 c 1.6194,-2.15424 6.36985,-8.19179 10.55656,-13.41679 21.75285,-27.14747 30.11766,-39.01974 35.38608,-50.22392 2.91624,-6.20184 6.50582,-12.70352 7.97686,-14.44817 5.39582,-6.39942 14.58011,-8.78231 24.12795,-6.26009 4.26545,1.1268 16.5,6.97496 16.5,7.88707 0,1.31164 -19.3949,22.25261 -27.06693,29.22457 -22.02403,20.01436 -48.86306,39.70179 -67.92897,49.82844 -2.46666,1.31014 -2.4614,1.27977 0.44845,-2.59111 z m 396.01924,0.21577 c -18.03544,-8.71129 -48.26357,-31.68197 -71.79342,-54.55658 -8.73952,-8.49616 -18.68471,-20.06388 -18.67154,-21.71777 0.009,-1.16139 5.59308,-4.87477 10.49317,-6.97821 4.93739,-2.11944 15.96978,-2.34289 23.38409,-0.47361 l 5.3841,1.35743 5.9571,12.54722 c 12.87568,27.11953 22.90293,41.89305 41.70054,61.43896 6.21509,6.4625 11.12412,11.75 10.90896,11.75 -0.21517,0 -3.52852,-1.51535 -7.363,-3.36744 z M 421,841.47941 c 0,-0.90961 17.11061,-23.84263 20.3162,-27.22941 2.06642,-2.18322 4.00932,-3.25 5.91912,-3.25 1.56364,0 9.71658,2.25674 18.11764,5.01498 20.24633,6.64727 28.33659,8.2834 36.60697,7.40319 8.4122,-0.89531 32.76638,-6.70816 36.76189,-8.77432 5.16605,-2.67147 12.13462,-3.84633 15.74554,-2.65462 3.61276,1.19232 7.55606,5.02551 9.84613,9.57121 0.848,1.68324 4.49937,6.72356 8.11416,11.20072 3.61479,4.47715 6.57235,8.38745 6.57235,8.68956 0,0.3021 -35.55,0.54928 -79,0.54928 -43.45,0 -79,-0.23427 -79,-0.52059 z M 304.48391,810.75 C 303.99131,809.39171 294,768.09163 294,767.41373 294,767.18618 294.86348,767 295.91883,767 c 2.13279,0 12.86305,12.69196 16.10835,19.05327 2.61474,5.12532 2.48862,8.8911 -0.6093,18.19332 -2.0436,6.13636 -2.98866,7.75341 -4.53139,7.75341 -1.07209,0 -2.15326,-0.5625 -2.40258,-1.25 z m 385.45184,-4.3623 c -4.26712,-7.45815 -5.00291,-14.37557 -2.12842,-20.01003 1.11432,-2.18426 5.10103,-7.77529 8.85936,-12.42452 L 703.5,765.5 l 0.31063,5.49133 c 0.17085,3.02023 -0.19283,8.42023 -0.80817,12 -1.16982,6.80545 -7.5078,26.90367 -8.93678,28.3392 -0.45471,0.4568 -2.31318,-1.76748 -4.12993,-4.94283 z M 485.77424,782.58398 C 478.25452,779.92992 471.50557,775.3754 452.5,760.12889 437.76704,748.30991 416,729.15435 416,728.00792 c 0,-0.81696 7.26837,-4.08128 13,-5.83846 6.6483,-2.03821 19.20206,-3.16951 35.32236,-3.18311 8.8977,-0.008 17.19014,-0.285 18.42764,-0.61664 l 2.25,-0.60297 v -60.91549 c 0,-49.12528 0.26331,-61.53831 1.3604,-64.13337 C 487.69397,589.56347 498.01904,579 499.76869,579 c 0.48863,0 2.9723,1.3803 5.51926,3.06734 3.3627,2.22736 5.39505,4.62353 7.42145,8.75 L 515.5,596.5 l -0.35704,60.12483 c -0.2959,49.82842 -0.12465,60.27269 1,60.98829 0.74637,0.47491 11.93204,1.17364 24.85704,1.55273 23.55248,0.69081 32.34172,1.84216 40.56396,5.31369 l 3.93604,1.66184 -14.50235,14.17931 c -39.65262,38.76935 -62.71653,50.20702 -85.22341,42.26329 z M 612.60156,755.05183 C 620.75122,746.96648 625,739.31466 625,732.72291 c 0,-6.15613 -3.43047,-18.90015 -6.72815,-24.99474 -4.1139,-7.60309 -11.8382,-14.98822 -19.8273,-18.95668 -8.97871,-4.46004 -16.20573,-6.37567 -30.77841,-8.15828 -6.50862,-0.79618 -12.03229,-1.64602 -12.27482,-1.88855 -0.24253,-0.24254 -0.31729,-7.99137 -0.16614,-17.21964 l 0.27482,-16.77866 6.9034,6.25777 c 9.48831,8.60094 16.91333,13.18352 26.74437,16.50611 7.01838,2.37199 10.02908,2.82824 18.85223,2.8569 16.14398,0.0524 28.69403,-3.87714 43.99525,-13.77544 22.4905,-14.54904 35.42516,-35.6719 41.03664,-67.01465 1.16845,-6.52631 2.80155,-12.89941 3.62911,-14.16243 0.82757,-1.26302 3.60489,-3.24873 6.17183,-4.41268 11.52435,-5.2256 16.08542,-7.52943 16.12478,-8.14475 0.0419,-0.65586 -15.53487,-32.74778 -16.23499,-33.4479 -0.19974,-0.19974 -10.45655,3.70138 -22.79289,8.66917 C 622.20327,561.30462 600.8174,566.78423 572,565.71282 c -22.12655,-0.82265 -34.14382,-4.95797 -44.55744,-15.33285 -4.15265,-4.13721 -7.20474,-9.17605 -15.89995,-26.25 C 505.62416,512.50849 500.40848,503 499.9522,503 c -0.45628,0 -4.97271,8.4375 -10.03653,18.75 -10.58291,21.5522 -15.61299,28.57364 -24.84817,34.68532 -11.90675,7.87968 -22.5116,10.11325 -44.0208,9.27156 -31.01351,-1.21359 -62.98702,-10.00267 -101.5467,-27.91378 -8.25,-3.83216 -16.45793,-7.60743 -18.23984,-8.38951 l -3.23985,-1.42194 -8.42775,16.83348 c -4.63527,9.25842 -8.12734,17.27315 -7.76016,17.81052 0.36718,0.53737 2.89121,1.81153 5.60895,2.83148 6.43884,2.41643 12.54432,8.13411 15.81206,14.80771 1.43967,2.94018 3.98711,10.62042 5.66099,17.06718 6.29728,24.25339 14.42868,38.87761 29.10976,52.35357 15.73549,14.44381 41.64932,22.66396 63.29701,20.0785 11.61844,-1.38763 25.84863,-9.09967 38.2662,-20.73835 C 441.9497,646.81158 444.13395,645 444.44126,645 444.74857,645 445,652.41643 445,661.48095 c 0,16.27699 -0.0278,16.48711 -2.25,16.9794 -1.2375,0.27415 -7.33285,1.42865 -13.54522,2.56556 -6.21238,1.1369 -14.31238,2.98597 -18,4.10904 -23.48676,7.15288 -36.12241,24.25089 -36.18742,48.96717 -0.0218,8.30866 1.86553,11.34433 11.74311,18.88765 6.23013,4.75783 6.99809,5.68024 5.75997,6.91836 -1.19644,1.19645 -2.53292,1.23695 -8.22451,0.24928 -24.55535,-4.26115 -71.94872,-12.52022 -77.79593,-13.55722 -3.85,-0.68279 -8.00719,-1.78514 -9.23819,-2.44968 -2.37891,-1.2842 -2.54032,-1.76232 -4.27082,-12.65051 -2.77118,-17.43613 -8.29329,-35.76362 -22.80552,-75.68989 C 252.35128,606.74437 246.31969,581.07503 241.3285,533 c -2.69384,-25.9469 -2.4612,-90.27842 0.45021,-124.5 3.135,-36.84963 3.37063,-39.12361 4.19172,-40.45216 0.52169,-0.84411 4.33872,0.54978 13.13251,4.79567 30.42694,14.69099 56.2759,17.87559 80.89706,9.96654 47.79267,-15.35244 74.48312,-71.65037 53.55281,-112.95846 -1.85277,-3.65662 -6.7851,-11.86614 -10.96074,-18.24338 C 375.83789,241.29291 374.09568,238 375.39223,238 c 0.21573,0 8.20323,-1.34288 17.75,-2.98418 64.08309,-11.01728 129.95605,-11.84274 196.85777,-2.46685 19.68749,2.75909 36.71654,5.83423 37.68811,6.80581 0.35618,0.35617 -2.49465,3.90956 -6.33517,7.8964 -7.64724,7.93863 -11.65862,13.4268 -15.78385,21.59471 -6.90822,13.67818 -8.48803,32.33299 -4.17728,49.32646 9.59655,37.8307 33.70293,60.69954 70.99447,67.34985 22.90603,4.08489 48.03675,-1.11973 72.97157,-15.11256 4.32182,-2.4253 8.16964,-4.40964 8.55072,-4.40964 0.74468,0 3.32343,20.08642 5.62727,43.83191 1.71472,17.67354 1.97666,83.08149 0.42042,104.9807 -3.21856,45.29097 -10.43929,83.20955 -22.51296,118.2235 -7.04081,20.41849 -14.87257,45.01061 -26.10276,81.96389 -4.76368,15.675 -8.98239,28.87082 -9.37492,29.32404 -0.39254,0.45323 -20.90789,4.37217 -45.58966,8.70877 -24.68178,4.33659 -46.21251,8.13683 -47.84607,8.44498 -2.72323,0.51368 -2.38477,-0.0205 4.07167,-6.42596 z M 341,454.61241 c 32.25445,-5.35194 57.92293,-18.22954 81.7697,-41.02298 23.87795,-22.82325 39.6545,-50.23476 51.5627,-89.58943 3.54747,-11.72381 10.90247,-43.09846 10.25511,-43.74583 -0.41938,-0.41937 -37.91179,-6.27937 -38.17428,-5.96657 -0.098,0.11682 -1.84982,6.7374 -3.89286,14.7124 -14.58961,56.95049 -29.78715,84.45061 -58.52379,105.89949 -14.26546,10.64766 -33.59192,18.68761 -50.88285,21.16761 -13.69745,1.96461 -34.50436,0.57952 -53.63621,-3.57047 l -3.02249,-0.65562 -5.08386,18.65886 -5.08386,18.65887 2.60634,1.00586 c 4.36676,1.68527 19.52866,4.77719 28.30893,5.77295 10.4791,1.18844 32.70091,0.51609 43.79742,-1.32514 z m 377.95889,-1.24164 c 7.97475,-1.37272 14.58191,-2.58022 14.68258,-2.68332 0.37472,-0.38373 -9.83289,-37.21613 -10.51018,-37.92417 -0.3876,-0.40519 -5.4132,0.24194 -11.16801,1.43808 -8.55776,1.77874 -13.8324,2.17419 -28.96328,2.17145 -16.89592,-0.003 -19.36707,-0.23545 -28.5,-2.68017 -32.24501,-8.6314 -60.47496,-32.52083 -77.26748,-65.38716 -8.57395,-16.78095 -14.81206,-35.30688 -20.27553,-60.21427 -1.61768,-7.37484 -3.09534,-13.56289 -3.28368,-13.75124 -0.33736,-0.33735 -38.90922,5.56261 -39.36842,6.0218 -0.27177,0.27177 6.33026,25.91874 10.8472,42.13823 15.48648,55.60905 48.67705,98.91366 91.27934,119.09456 30.69307,14.53945 64.15005,18.38228 102.52746,11.77621 z M 220.08387,711.23771 c -1.51926,-1.51926 -3.76005,-5.42903 -4.97953,-8.68838 -1.21948,-3.25935 -8.28697,-30.42399 -15.70553,-60.36586 C 181.26303,568.98617 178.41159,562.1147 155.81703,537.15935 145.84737,526.14801 139.15918,511.26624 137.0944,495.5 135.27772,481.62812 131,420.78653 131,408.81986 c 0,-5.59208 2.28757,-5.63191 12.09526,-0.2106 12.94918,7.15781 15.4761,9.17978 29.41424,23.53653 16.50929,17.0051 25.3305,27.25472 25.91313,30.10921 0.25203,1.23475 0.69352,12.82 0.98109,25.745 1.59829,71.83541 15.49929,140.19034 41.0997,202.09823 6.39981,15.47625 6.57741,14.72187 -4.8066,20.41705 -8.52529,4.26503 -11.91357,4.42181 -15.61295,0.72243 z m 543.79479,-1.00322 c -3.64174,-2.05397 -7.41183,-4.23461 -8.37798,-4.84586 -1.61451,-1.02146 -0.94458,-3.28687 8.2802,-28 5.52025,-14.78875 11.85765,-32.73863 14.0831,-39.88863 13.20878,-42.43758 20.40834,-88.66583 21.72566,-139.5 0.68004,-26.24251 1.66565,-34.59687 4.8147,-40.81122 1.59321,-3.14404 7.50269,-9.71104 17.306,-19.23156 22.20453,-21.56397 26.98564,-25.48404 36.40307,-29.84711 10.21686,-4.73343 12.29649,-4.33314 11.44438,2.20282 -0.30023,2.30289 -1.01485,10.48707 -1.58804,18.18707 -3.29961,44.32572 -6.40238,73.74196 -8.59017,81.44028 -3.00931,10.58903 -9.09378,20.88307 -17.74258,30.01783 -17.99916,19.01052 -25.91026,36.83168 -37.5295,84.54189 -20.00391,82.13886 -19.99126,82.09355 -24.18178,86.57952 -3.77416,4.04025 -7.75724,3.8305 -16.04706,-0.84503 z M 374.12243,625.49164 c -5.15726,-4.65927 -8.30606,-12.16944 -8.906,-21.24164 -0.2637,-3.9875 -0.0828,-7.25195 0.40206,-7.25433 2.93092,-0.0144 30.11234,6.52967 31.19346,7.51001 1.07638,0.97603 0.92643,2.33922 -0.83508,7.59198 -2.77104,8.26313 -5.50926,12.64611 -9.3721,15.00162 -4.66858,2.84683 -8.03113,2.41376 -12.48234,-1.60764 z m 239.1821,2.00911 c -2.71054,-1.89854 -5.3762,-6.21397 -9.70242,-15.70725 l -3.42261,-7.51042 16.70335,-3.64154 C 626.0697,598.63869 634.17349,597 634.89129,597 c 1.80211,0 0.52854,10.73817 -2.11635,17.84422 C 629.98893,622.3294 623.4478,629 618.89392,629 c -1.8969,0 -4.41213,-0.67466 -5.58939,-1.49925 z M 302.5,347.01128 C 288.76083,345.06589 280.03512,340.8007 252.98797,322.80942 194.09408,283.63426 157.1136,254.12605 117.91326,215.02788 56.401299,153.67624 22.2669,97.704796 5.498783,30.697682 -0.00568905,8.7012474 0.53140807,8.2401088 12.446588,24.732464 44.021452,68.436705 67.059881,98.039008 86.295022,119.62104 151.19301,192.43727 213.14797,230.11068 315.37182,258.91745 c 20.28273,5.7157 22.9381,6.76578 30.42346,12.0312 13.08009,9.20091 17.91018,20.9999 14.76723,36.07357 C 354.70924,335.09464 331.45412,351.111 302.5,347.01128 Z M 678,346.8807 C 663.98296,344.62398 649.89471,333.75937 643.18138,320.02921 639.58943,312.6829 639.5,312.22064 639.5,301 c 0,-10.54371 0.2305,-11.96924 2.77194,-17.14286 3.33626,-6.79167 9.50064,-12.70395 17.40688,-16.69501 3.21567,-1.62326 20.24093,-7.47115 37.83392,-12.99531 36.17301,-11.35825 49.75168,-16.08685 66.86173,-23.28374 C 828.32987,203.98192 884.4782,158.81595 936.40616,92.5 946.53323,79.566966 961.74102,59.253394 984.50702,28.25 995.17829,13.717558 999,9.7183426 999,13.083865 999,15.676058 986.59896,57.500063 982.86532,67.5 952.01136,150.13734 885.0783,225.94234 773,305.18283 c -20.52626,14.51228 -44.68855,30.21867 -52.5,34.12697 -15.38603,7.69809 -27.88281,9.92425 -42.5,7.5709 z"/>
	</g>
</svg>
