<svg xmlns="http://www.w3.org/2000/svg" viewBox="0 0 512 512">
    <g id="stack-icon">
        <path d="m160.5 444.36c-102.96-18.367-109.4-19.637-116.14-22.907-21.992-10.658-33.397-40.692-25.346-66.749 1.9503-6.312 7.605-16.683 10.948-20.08 1.7924-1.8212 1.7458-1.9984-1.7108-6.5-11.255-14.657-14.829-35.325-9.2375-53.42 1.9503-6.312 7.605-16.683 10.948-20.08 1.7924-1.8212 1.7458-1.9984-1.7108-6.5-14.37-18.715-15.79-45.301-3.5232-66.001 5.3253-8.9865 11.734-14.328 29.384-24.489 8.466-4.8742 53.643-30.955 100.39-57.956 61.311-35.412 86.533-49.476 90.5-50.464 5.2884-1.3175 10.079-0.77105 124.5 14.2 65.45 8.5636 120.03 15.81 121.28 16.103 1.3346 0.3119 2.9784 1.9998 3.9674 4.0737 1.5124 3.1716 1.5335 3.8175 0.20234 6.1892-1.029 1.8333-33.17 22.291-104.47 66.493-56.64 35.115-104.56 64.522-106.48 65.35-7.7952 3.3532-8.7128 3.2269-117-16.103-116.6-20.813-108.58-19.943-115.94-12.581-7.1411 7.1411-9.9877 20.325-6.5165 30.182 2.0727 5.8854 6.0648 11.474 9.848 13.785 2.2601 1.3811 31.829 7.0173 108.11 20.607 57.75 10.289 107.27 18.72 110.05 18.738 2.7787 0.0171 6.8287-0.55421 9-1.2695 2.1713-0.71528 46.82-27.481 99.218-59.479l95.27-58.178 6.2296 0.8847c8.5781 1.2182 11.362 2.4861 12.735 5.799 1.5449 3.7297 0.57486 6.4591-3.3226 9.3488-9.9704 7.3923-205.96 127.38-210.67 128.98-3.9849 1.3498-6.9612 1.6996-10.728 1.261-2.8674-0.3339-50.792-8.7345-106.5-18.668-113.02-20.154-105.38-19.341-112.73-11.988-7.1411 7.1411-9.9877 20.325-6.5165 30.182 2.0727 5.8854 6.0648 11.474 9.848 13.785 2.2601 1.3811 31.829 7.0173 108.11 20.607 57.75 10.289 107.27 18.72 110.05 18.738 2.7787 0.0171 6.8287-0.55421 9-1.2695 2.1713-0.71528 46.82-27.481 99.218-59.479l95.27-58.178 6.2296 0.8847c8.3246 1.1822 11.249 2.4357 12.6 5.4016 1.62 3.5556 1.4187 4.9528-1.1203 7.7736-1.2375 1.3749-48.588 31.117-105.22 66.093-71.913 44.411-104.61 64.068-108.39 65.167-3.6891 1.0724-7.0429 1.3597-10.527 0.90157-2.8123-0.36975-50.563-8.774-106.11-18.676-112.71-20.09-105.09-19.282-112.44-11.93-7.1411 7.1411-9.9877 20.325-6.5165 30.182 2.0727 5.8854 6.0648 11.474 9.848 13.785 2.2601 1.3811 31.829 7.0173 108.11 20.607 57.75 10.289 107.27 18.72 110.05 18.738 2.7787 0.0171 6.8287-0.55421 9-1.2695 2.1713-0.71528 46.82-27.481 99.218-59.479l95.27-58.178 6.2296 0.8847c8.5781 1.2182 11.362 2.4861 12.735 5.799 1.5449 3.7297 0.57489 6.459-3.3226 9.3491-8.9606 6.6446-205.84 127.34-210.15 128.83-2.7693 0.95751-6.6101 1.7127-8.5351 1.6782-1.925-0.0345-52.55-8.8129-112.5-19.508zm202.05-328.49c9.8743-5.5705 18.758-10.888 19.742-11.817 1.8389-1.7358 1.5132-4.5519-0.61627-5.3278-0.64497-0.23504-24.846-3.5097-53.781-7.277l-52.608-6.8497-19.142 10.897c-18.842 10.726-21.416 12.912-17.892 15.193 1.462 0.9462 96.32 15.042 102.3 15.201 3.3828 0.0901 6.9917-1.5536 22-10.02z"/>
    </g>
</svg>
