<svg xmlns="http://www.w3.org/2000/svg" viewBox="0 0 512 512">
	<g id="stack-icon">
		<path d="m160.5 444.4c-103-18.4-109.4-19.6-116.1-22.9-22-10.7-33.4-40.7-25.3-66.7 2-6.3 7.6-16.7 10.9-20.1 1.8-1.8 1.7-2-1.7-6.5-11.3-14.7-14.8-35.3-9.2-53.4 2-6.3 7.6-16.7 10.9-20.1 1.8-1.8 1.7-2-1.7-6.5-14.4-18.7-15.8-45.3-3.5-66 5.3-9 11.7-14.3 29.4-24.5 8.5-4.9 53.6-31 100.4-58 61.3-35.4 86.5-49.5 90.5-50.5 5.3-1.3 10.1-0.8 124.5 14.2 65.5 8.6 120 15.8 121.3 16.1 1.3 0.3 3 2 4 4.1 1.5 3.2 1.5 3.8 0.2 6.2-1 1.8-33.2 22.3-104.5 66.5-56.6 35.1-104.6 64.5-106.5 65.4-7.8 3.4-8.7 3.2-117-16.1-116.6-20.8-108.6-19.9-115.9-12.6-7.1 7.1-10 20.3-6.5 30.2 2.1 5.9 6.1 11.5 9.8 13.8 2.3 1.4 31.8 7 108.1 20.6 57.8 10.3 107.3 18.7 110.1 18.7 2.8 0 6.8-0.6 9-1.3 2.2-0.7 46.8-27.5 99.2-59.5l95.3-58.2 6.2 0.9c8.6 1.2 11.4 2.5 12.7 5.8 1.5 3.7 0.6 6.5-3.3 9.3-10 7.4-206 127.4-210.7 129-4 1.3-7 1.7-10.7 1.3-2.9-0.3-50.8-8.7-106.5-18.7-113-20.2-105.4-19.3-112.7-12-7.1 7.1-10 20.3-6.5 30.2 2.1 5.9 6.1 11.5 9.8 13.8 2.3 1.4 31.8 7 108.1 20.6 57.8 10.3 107.3 18.7 110.1 18.7 2.8 0 6.8-0.6 9-1.3 2.2-0.7 46.8-27.5 99.2-59.5l95.3-58.2 6.2 0.9c8.3 1.2 11.2 2.4 12.6 5.4 1.6 3.6 1.4 5-1.1 7.8-1.2 1.4-48.6 31.1-105.2 66.1-71.9 44.4-104.6 64.1-108.4 65.2-3.7 1.1-7 1.4-10.5 0.9-2.8-0.4-50.6-8.8-106.1-18.7-112.7-20.1-105.1-19.3-112.4-11.9-7.1 7.1-10 20.3-6.5 30.2 2.1 5.9 6.1 11.5 9.8 13.8 2.3 1.4 31.8 7 108.1 20.6 57.8 10.3 107.3 18.7 110.1 18.7 2.8 0 6.8-0.6 9-1.3 2.2-0.7 46.8-27.5 99.2-59.5l95.3-58.2 6.2 0.9c8.6 1.2 11.4 2.5 12.7 5.8 1.5 3.7 0.6 6.5-3.3 9.3-9 6.6-205.8 127.3-210.1 128.8-2.8 1-6.6 1.7-8.5 1.7-1.9 0-52.5-8.8-112.5-19.5zm202.1-328.5c9.9-5.6 18.8-10.9 19.7-11.8 1.8-1.7 1.5-4.6-0.6-5.3-0.6-0.2-24.8-3.5-53.8-7.3l-52.6-6.8-19.1 10.9c-18.8 10.7-21.4 12.9-17.9 15.2 1.5 0.9 96.3 15 102.3 15.2 3.4 0.1 7-1.6 22-10z"/>
	</g>
</svg>
