<svg xmlns="http://www.w3.org/2000/svg" viewBox="0 0 793 756">
	<g id="wheel-icon">
		<path d="M396.6 0A378 378 0 0 0 231.8 37.9C222.9 29.7 209.5 27.9 198.4 34.3 187.4 40.6 182.3 53.2 184.9 65A378 378 0 0 0 19.9 350.9C8.3 354.5 0 365.2 0 378 0 390.7 8.3 401.4 19.9 405A378 378 0 0 0 184.9 690.9C182.3 702.7 187.4 715.3 198.4 721.6 209.5 728 222.9 726.2 231.8 718A378 378 0 0 0 396.8 755.9 378 378 0 0 0 561.9 718C570.8 726.2 584.2 728 595.3 721.6 606.3 715.3 611.4 702.7 608.8 690.9A378 378 0 0 0 773.8 405C785.4 401.4 793.7 390.7 793.7 378 793.7 365.2 785.4 354.5 773.8 350.9A378 378 0 0 0 608.8 65C611.4 53.2 606.3 40.6 595.3 34.3 584.2 27.9 570.8 29.7 561.9 37.9A378 378 0 0 0 396.8 0 378 378 0 0 0 396.6 0zM396.8 56.7A321.3 321.3 0 0 1 532.3 86.6L396.9 321.3 261.4 86.6A321.3 321.3 0 0 1 396.8 56.7zM212.3 115L347.8 349.6 76.8 349.6A321.3 321.3 0 0 1 212.3 115zM581.4 115A321.3 321.3 0 0 1 716.9 349.6L446 349.6 581.4 115zM76.8 406.3L347.8 406.3 212.3 640.9A321.3 321.3 0 0 1 76.8 406.3zM445.9 406.3L716.9 406.3A321.3 321.3 0 0 1 581.4 640.9L445.9 406.3zM396.9 434.6L532.3 669.3A321.3 321.3 0 0 1 396.8 699.2 321.3 321.3 0 0 1 261.4 669.3L396.9 434.6z"/>
	</g>
</svg>
