<svg xmlns="http://www.w3.org/2000/svg" viewBox="0 0 793 756">
  <g id="wheel-icon">
    <path d="M 396.5918 0 A 377.95276 377.95276 0 0 0 231.80273 37.943359 C 222.92704 29.745716 209.46804 27.89541 198.42773 34.269531 C 187.38803 40.643307 182.26134 53.222964 184.92188 65.007812 A 377.95276 377.95276 0 0 0 19.869141 350.88672 C 8.331488 354.47422 0 365.20457 0 377.95312 C 0 390.70168 8.3314811 401.43204 19.869141 405.01953 A 377.95276 377.95276 0 0 0 184.92188 690.89648 C 182.26132 702.68135 187.38802 715.26098 198.42773 721.63477 C 209.46759 728.00863 222.92507 726.15773 231.80078 717.96094 A 377.95276 377.95276 0 0 0 396.84961 755.90625 A 377.95276 377.95276 0 0 0 561.90234 717.96094 C 570.77804 726.15858 584.23704 728.00889 595.27734 721.63477 C 606.31765 715.26064 611.44472 702.67993 608.7832 690.89453 A 377.95276 377.95276 0 0 0 773.83203 405.01953 C 785.36879 401.4315 793.70117 390.70105 793.70117 377.95312 C 793.70117 365.20521 785.36879 354.47475 773.83203 350.88672 A 377.95276 377.95276 0 0 0 608.7832 65.011719 C 611.44567 53.225789 606.31822 40.643983 595.27734 34.269531 C 584.23665 27.895182 570.77803 29.746923 561.90234 37.945312 A 377.95276 377.95276 0 0 0 396.84961 0 A 377.95276 377.95276 0 0 0 396.5918 0 z M 396.84961 56.693359 A 321.25984 321.25984 0 0 1 532.30664 86.648438 L 396.85156 321.26172 L 261.39648 86.644531 A 321.25984 321.25984 0 0 1 396.84961 56.693359 z M 212.29883 114.99219 L 347.75391 349.60547 L 76.84375 349.60547 A 321.25984 321.25984 0 0 1 212.29883 114.99219 z M 581.40234 114.99414 A 321.25984 321.25984 0 0 1 716.85742 349.60547 L 445.95117 349.60547 L 581.40234 114.99414 z M 76.841797 406.29883 L 347.75586 406.29883 L 212.29883 640.91406 A 321.25984 321.25984 0 0 1 76.841797 406.29883 z M 445.94922 406.29883 L 716.85547 406.29883 A 321.25984 321.25984 0 0 1 581.40234 640.91211 L 445.94922 406.29883 z M 396.85156 434.64453 L 532.30664 669.25977 A 321.25984 321.25984 0 0 1 396.84961 699.21289 A 321.25984 321.25984 0 0 1 261.39648 669.25977 L 396.85156 434.64453 z "/>
  </g>
</svg>
