<svg xmlns="http://www.w3.org/2000/svg">
	<defs>
		<svg id="snek-body-straight" viewBox="0 0 100 100">
			<rect width="100" height="80" x="0" y="10"/>
		</svg>
		<svg id="snek-body-turned" viewBox="0 0 100 100">
			<path d="M90 10a80 80 0 0 0-80 80v10h80a10 10 0 0 1 10-10V10z"/>
		</svg>
		<svg id="snek-head-default" viewBox="0 0 100 100">
			<path d="M0 10v80h23.5c24.1-1.4 43.8-16.5 46.1-36 .3-2 .5-5.6.5-6.1-1.6-21.2-23.4-37.7-49.9-37.7L10 10Zm43 15a13 13 0 0 1 5 25 13 13 0 1 1-10 0 13 13 0 0 1 5-25Z"/>
		</svg>
		<svg id="snek-head-tongue" viewBox="0 0 100 100">
			<path d="M0 10v80h23.5c24.1-1.4 43.8-16.5 46.1-36l11.2-.4 5.7 4c4.1 2.9 6 4 7.5 3.9a3 3 0 0 0 1.8-.9c2-1.6 1.3-3-3.2-6.4L88.3 51l4-3.5c2.1-2 4-3.8 4-4 0-1.3-2.4-3.3-3.8-3.3-.8 0-3.6 1.7-6.3 4l-4.9 4-11.2-.3c-1.6-21.2-23.4-37.7-49.9-37.7L10 10Zm43 15a13 13 0 0 1 5 25 13 13 0 1 1-10 0 13 13 0 0 1 5-25Z"/>
		</svg>
		<svg id="snek-tail" viewBox="0 0 100 100">
			<path d="M100 90V10H76.5c-24.1 1.4-43.8 16.5-46.1 36-.3 2-.5 5.6-.5 6.1 1.6 21.2 23.4 37.7 49.9 37.7L90 90Z"/>
		</svg>
	</defs>
</svg>
