<svg xmlns="http://www.w3.org/2000/svg" viewBox="0 0 100 100">
	<g id="snek-food">
		<path d="m50.5 4.14c-0.114-0.114-1.19 0.398-1.89 0.902-1.53 1.09-3.44 3.49-4.39 5.52-0.723 1.54-1.12 2.91-1.51 5.15l-0.0742 0.436-0.498-0.99c-0.893-1.78-2.26-3.91-4.98-5.03-2.72-1.12-3.84-1.17-5.39-2.03s-2.15-1.42-2.99-2.51l-0.447-0.584-0.338 0.408c-0.772 0.936-1.49 3.42-1.79 4.83-0.303 1.41-1.07 3.36-1.53 5.62-0.457 2.26-0.133 5.56 0.447 7.12 0.121 0.325 0.196 0.613 0.168 0.641-0.0275 0.0275-0.395-0.0374-0.816-0.145-0.612-0.155-1.84-0.363-3.83-0.309-1.99 0.0541-2.45 0.368-3.96 0.752-1.5 0.384-4.11 0.919-5.38 0.744-0.509-0.0696-0.964-0.15-1.01-0.18-0.315-0.195 0.303 1.77 0.949 3.01 0.872 1.68 2.43 3.5 4.06 4.73 0.977 0.738 3.16 1.81 4.41 2.17 0.992 0.284 2.52 0.539 3.98 0.67 0.419 0.0374 0.718 0.109 0.666 0.158-0.0525 0.0493-0.893 0.246-1.87 0.438-2.75 0.539-4.7 1.27-6.3 2.36-3.06 2.07-4.85 5.02-5.05 8.32-0.0673 1.07 0.0741 2.31 0.336 2.93l0.135 0.322 0.318-0.768c1.05-2.52 3.2-4.55 6.04-5.69 1.46-0.586 4.14-1.21 4.14-0.969 0 0.0294-0.169 0.317-0.375 0.639-2 3.13-3.11 7.77-2.92 12.2 0.251 5.72 2.14 10.7 5.96 15.7 1.11 1.45 4.33 4.63 5.94 5.87 3.48 2.68 8.21 5.45 14.9 8.69 7 3.4 12.8 5.56 16.1 5.98 3.49 0.441 6.88-0.284 9.43-2.01 1.45-0.982 3.14-2.89 4.28-4.82 1.82-3.09 3.53-8.82 5.35-17.9 2.75-13.8 2.92-19.8 0.734-26.1-2.53-7.26-8.69-12.9-16.2-14.8-0.688-0.174-1.25-0.352-1.25-0.393 0-0.147 2.86-2.67 3.74-3.3 2.42-1.73 5.08-2.58 7.52-2.43l0.998 0.0645-0.377-0.393c-1.17-1.22-3.42-2.51-5.77-3.3-1.89-0.64-2.94-0.789-5.61-0.791-2.03-0.00145-2.5 0.0326-3.61 0.262-1.84 0.38-3.4 0.917-5.05 1.73-1.68 0.831-2.43 1.31-3.72 2.38-0.519 0.432-0.975 0.787-1.01 0.787-0.0363 8.4e-5 2.38e-4 -0.338 0.0801-0.75 0.178-0.921 0.196-3.54 0.0312-4.62-0.0669-0.439-0.401-1.9-0.742-3.24-0.617-2.43-0.619-2.45-0.627-4.17-0.0078-1.65 0.00349-1.75 0.307-2.48 0.174-0.417 0.289-0.787 0.254-0.822zm9.91 23.6c0.194-0.0227 0.834 0.162 0.834 0.162 1.13 0.218 7.5 2.46 10.8 4.96 3.26 2.51 7.41 8.24 7.4 17.7-0.0111 9.44-3.01 22.4-4.79 27.9-0.462 1.42-1.17 3.49-2.14 4.3-0.973 0.809-2.26 2.28-3.84 1.66-1.57-0.622-2.59-1.2-5.58-5.04-2.99-3.84-2.95-3.93-6.8-7.75-3.86-3.82-6.1-5.66-11.2-8.8-5.11-3.14-6.75-5.82-8.15-8.73-1.4-2.91-2.54-7.49-2.27-10.3s1.5-4.3 2.66-5.85c1.15-1.55 3-4.01 3.83-3.55s1.99 1.26 4.14 2.07c4.27 1.6 4.89 2.04 7.02 4.88 0.0846 0.113 0.866-0.781 1.37-1.57 0.972-1.51 1.69-3.38 2.12-5.54 0 0 0.299-1.46 0.369-2.41 0.0705-0.945 0.0558-1.47 0.0137-1.8l-0.0762-0.602c1.11-0.312 1.34-0.397 2.33-0.773s1.8-0.88 2-0.902zm1.71 4.78a3.75 3.75 0 0 0-3.75 3.75 3.75 3.75 0 0 0 3.75 3.75 3.75 3.75 0 0 0 3.75-3.75 3.75 3.75 0 0 0-3.75-3.75zm-0.639 11a3.75 3.75 0 0 0-3.75 3.75 3.75 3.75 0 0 0 3.75 3.75 3.75 3.75 0 0 0 3.75-3.75 3.75 3.75 0 0 0-3.75-3.75zm-15.8 0.5a3.75 3.75 0 0 0-3.75 3.75 3.75 3.75 0 0 0 3.75 3.75 3.75 3.75 0 0 0 3.75-3.75 3.75 3.75 0 0 0-3.75-3.75zm25.5 1.25a3.75 3.75 0 0 0-3.75 3.75 3.75 3.75 0 0 0 3.75 3.75 3.75 3.75 0 0 0 3.75-3.75 3.75 3.75 0 0 0-3.75-3.75zm-14 8.75a3.75 3.75 0 0 0-3.75 3.75 3.75 3.75 0 0 0 3.75 3.75 3.75 3.75 0 0 0 3.75-3.75 3.75 3.75 0 0 0-3.75-3.75zm14.2 2.5a3.75 3.75 0 0 0-3.75 3.75 3.75 3.75 0 0 0 3.75 3.75 3.75 3.75 0 0 0 3.75-3.75 3.75 3.75 0 0 0-3.75-3.75zm-3.75 11a3.75 3.75 0 0 0-3.75 3.75 3.75 3.75 0 0 0 3.75 3.75 3.75 3.75 0 0 0 3.75-3.75 3.75 3.75 0 0 0-3.75-3.75z"/>
	</g>
</svg>
