<svg xmlns="http://www.w3.org/2000/svg" viewBox="0 0 100 100">
	<g id="snek-food">
		<path d="m61.7 91.2c-3.29-0.417-9.11-2.58-16.1-5.98-6.67-3.24-11.4-6.01-14.9-8.69-1.61-1.25-4.83-4.42-5.94-5.87-3.82-4.97-5.71-9.94-5.96-15.7-0.195-4.43 0.913-9.07 2.92-12.2 0.206-0.322 0.374-0.61 0.374-0.639 0-0.244-2.68 0.383-4.14 0.969-2.84 1.14-4.99 3.17-6.04 5.69l-0.319 0.767-0.135-0.323c-0.262-0.627-0.404-1.86-0.336-2.93 0.207-3.3 2-6.24 5.05-8.32 1.6-1.09 3.56-1.82 6.3-2.36 0.974-0.191 1.81-0.388 1.87-0.437 0.0525-0.0493-0.248-0.12-0.667-0.158-1.46-0.131-2.99-0.388-3.98-0.672-1.25-0.357-3.43-1.43-4.41-2.17-1.63-1.23-3.19-3.05-4.06-4.73-0.647-1.25-1.26-3.21-0.949-3.01 0.0476 0.0294 0.503 0.11 1.01 0.18 1.28 0.175 2.38 0.0228 5.38-0.744l2.46-0.628 2.28-0.0052c1.82-0.0042 2.43 0.0341 3.04 0.19 0.421 0.107 0.789 0.172 0.816 0.145 0.0275-0.0275-0.0485-0.316-0.169-0.641-0.58-1.57-0.741-2.6-0.742-4.76-4.86e-4 -2.12 0.151-3.13 0.682-4.53 0.203-0.535 0.253-0.515 0.519 0.209 0.103 0.28 0.258 0.605 0.343 0.722 0.136 0.186 0.156-0.0201 0.153-1.62-0.0016-1.01 0.0552-2.25 0.126-2.76 0.254-1.82 1.02-3.89 1.79-4.83l0.337-0.409 0.448 0.583c0.837 1.09 1.46 1.56 3.7 2.81 0.856 0.474 1.84 1.08 2.19 1.36 0.68 0.525 0.78 0.469 0.422-0.233l-0.217-0.425 0.356 0.0702c0.548 0.108 1.85 0.761 2.82 1.41 1.71 1.15 3.19 2.81 4.08 4.59l0.497 0.989 0.0748-0.435c0.385-2.24 0.786-3.61 1.51-5.15 0.95-2.03 2.85-4.42 4.39-5.52 0.707-0.505 1.78-1.02 1.89-0.902 0.035 0.035-0.0787 0.405-0.253 0.821-0.303 0.726-0.316 0.829-0.308 2.48 0.0081 1.71 0.0115 1.74 0.628 4.17 0.341 1.34 0.675 2.8 0.742 3.24 0.165 1.08 0.147 3.7-0.0317 4.62-0.0798 0.412-0.116 0.75-0.0792 0.75 0.0363-8.4e-5 0.491-0.354 1.01-0.786 1.3-1.08 2.04-1.55 3.72-2.39 1.65-0.815 3.22-1.35 5.06-1.73 1.11-0.229 1.58-0.264 3.61-0.262 2.67 0.0019 3.72 0.15 5.61 0.79 2.34 0.792 4.59 2.08 5.77 3.3l0.377 0.393-0.998-0.0647c-2.44-0.158-5.1 0.699-7.52 2.43-0.876 0.626-3.74 3.15-3.74 3.3 0 0.0409 0.562 0.217 1.25 0.392 7.46 1.89 13.6 7.52 16.2 14.8 2.18 6.25 2.01 12.3-0.734 26.1-1.81 9.1-3.52 14.8-5.35 17.9-1.14 1.93-2.83 3.84-4.28 4.82-2.55 1.73-5.94 2.45-9.43 2.01zm0.99-2.97c0.0325-0.0526-0.136-0.183-0.373-0.291-0.561-0.253-1.21-0.906-1.79-1.79-0.511-0.784-0.788-0.946-1.11-0.651-0.279 0.253-0.273 0.746 0.0166 1.34 0.442 0.913 1.4 1.48 2.51 1.48 0.378 0.0013 0.714-0.0406 0.747-0.0932zm4.77-0.133c0.256-0.0646 0.585-0.207 0.73-0.316l0.264-0.199-0.513-0.0703c-0.593-0.0812-1.38-0.457-2.01-0.957-0.548-0.437-0.775-0.408-0.815 0.105-0.042 0.538 0.317 1.07 0.894 1.34 0.542 0.246 0.801 0.264 1.45 0.101zm-11.4-1.19c0-0.0479-0.138-0.169-0.306-0.269-0.471-0.281-0.999-0.875-1.62-1.83-0.314-0.479-0.66-0.887-0.77-0.907-0.33-0.061-0.522 0.196-0.522 0.695 0 0.81 0.888 1.92 1.8 2.25 0.412 0.149 1.42 0.193 1.42 0.0612zm14.8-2.1c0.861-0.396 1.79-1.83 2.04-3.13 0.124-0.659 0.132-1.7 0.0162-2.11-0.0741-0.264-0.0765-0.264-0.433 0.143-0.323 0.368-0.359 0.479-0.359 1.11 0 1.3-0.562 2.59-1.28 2.93-0.309 0.147-0.412 0.155-0.549 0.0409-0.397-0.329-0.333-1.39 0.162-2.71 0.198-0.529 0.417-0.817 1.16-1.54 0.985-0.946 1.46-1.69 1.78-2.8 0.236-0.816 0.237-2.34 3e-3 -3.21-0.296-1.11-0.236-1.48 0.673-4.23 0.649-1.96 0.831-2.65 0.784-2.95-0.0334-0.218-0.113-0.694-0.177-1.06-0.148-0.848-0.0162-1.71 0.518-3.38 0.337-1.06 0.419-1.22 0.499-1.01 0.0523 0.141 0.346 0.522 0.652 0.846 1.07 1.13 1.33 2.34 0.877 4.2-0.139 0.579-0.294 1.05-0.344 1.05-0.0887 0-0.474-1.17-0.613-1.87-0.0388-0.194-0.102-0.351-0.14-0.348-0.0996 0.0077-1.13 2.24-1.13 2.44 0.0017 0.0919 0.177 0.412 0.39 0.712 0.645 0.908 0.858 1.63 0.859 2.9 8.48e-4 1.07-0.105 1.79-0.365 2.46-0.12 0.311-0.135 0.289-0.497-0.721-0.205-0.572-0.398-1.06-0.427-1.09-0.106-0.106-0.513 1.45-0.512 1.95 7.8e-4 0.284 0.13 0.916 0.286 1.4 0.574 1.79 0.461 4.1-0.318 6.49-0.202 0.618-0.338 1.12-0.302 1.12 0.158 0 1.02-1.97 1.48-3.39 1.78-5.47 4.38-18.9 5.09-26.2 0.187-1.94 0.0725-5.66-0.224-7.3-0.917-5.08-3.04-9.09-6.64-12.5-1.49-1.43-3.42-2.79-5.2-3.68-1.74-0.865-4.25-1.6-6.32-1.87l-1.08-0.136-0.796 0.417c-0.438 0.229-1.12 0.539-1.52 0.689s-0.765 0.298-0.817 0.331c-0.0522 0.0322 0.204 0.235 0.569 0.451 0.365 0.216 0.956 0.695 1.31 1.06 0.443 0.459 0.543 0.606 0.315 0.463-1.27-0.792-2.2-1.13-3.48-1.24l-0.812-0.0713 0.0767 0.6c0.0422 0.33 0.0921 0.618 0.111 0.64 0.0189 0.0221 0.291 0.0602 0.604 0.0846 0.686 0.0536 1.13 0.265 1.7 0.804 0.505 0.48 0.826 1.06 0.95 1.73 0.307 1.64-1.32 1.71-3.07 0.131l-0.436-0.394-0.244 1.22c-0.432 2.15-1.15 4.02-2.12 5.54-0.505 0.787-1.29 1.68-1.37 1.57-2.13-2.84-2.75-3.27-7.02-4.88-2.15-0.809-3.83-1.59-4.46-2.07-0.195-0.148-0.4-0.269-0.457-0.269-0.129 0-0.708 1.28-1.04 2.3-0.256 0.787-0.342 2.17-0.18 2.9 0.124 0.556-0.0914 0.326-0.319-0.34-0.21-0.617-0.267-1.86-0.126-2.78 0.0928-0.603-0.0404-0.695-0.255-0.177-0.211 0.51-1.09 1.82-2.12 3.18-1.05 1.38-1.37 2.01-1.61 3.21-0.309 1.51 0.0689 3.26 0.889 4.13 0.453 0.477 0.913 0.671 2.02 0.852 1.08 0.176 1.35 0.276 1.82 0.666 0.98 0.825 1.4 3.1 0.715 3.86-0.26 0.287-0.808 0.24-1.37-0.119-0.953-0.604-1.55-1.59-1.8-2.98l-0.137-0.764-0.807-0.423c-0.444-0.232-0.862-0.388-0.931-0.346-0.205 0.127-0.0107 2.1 0.294 2.98 0.456 1.32 1.46 2.62 2.64 3.42 0.65 0.441 1.32 0.726 2.42 1.03 1.84 0.504 2.97 2.38 2.59 4.28-0.164 0.819-1.13 0.646-2.26-0.403-0.74-0.685-1.28-1.65-1.39-2.46-0.0372-0.287-0.0883-0.625-0.114-0.75-0.0259-0.128-0.377-0.454-0.799-0.744-0.691-0.473-1.7-1.42-2.41-2.25-0.358-0.422-0.361-0.251-0.0138 0.672 0.289 0.768 0.558 1.22 1.06 1.77 0.256 0.282 0.311 0.462 0.361 1.17 0.139 1.98 1.53 3.96 3.55 5.06 0.298 0.162 1.15 0.515 1.88 0.783 1.46 0.53 1.73 0.7 2.98 1.88 1.78 1.68 2.85 2.27 4.93 2.72 0.562 0.122 1.59 0.399 2.28 0.615 0.691 0.217 1.26 0.394 1.27 0.394 0.0103 4.3e-5 0.0212 0.563 0.0242 1.25 0.0044 1 0.0537 1.38 0.25 1.91 0.134 0.365 0.244 0.701 0.244 0.749 0 0.119-0.659 0.382-1.18 0.47-0.611 0.103-1.69-0.257-2.42-0.807-1.07-0.81-1.62-1.95-1.62-3.36v-0.743l-0.472-0.127c-1-0.27-1-0.271-1.17 0.598-0.302 1.57 0.283 3.35 1.51 4.6 1.72 1.75 4.36 1.9 5.35 0.296l0.24-0.388 0.556 0.668c0.69 0.829 1.42 1.37 2.17 1.61 0.795 0.25 1.8 0.23 2.43-0.0491l0.509-0.225-0.275 0.326c-1.06 1.26 0.0664 4.18 1.96 5.06 0.73 0.34 1.8 0.367 2.47 0.0623 0.588-0.267 1.22-1.01 1.45-1.72 0.198-0.589 0.258-1.77 0.121-2.35-0.045-0.19 0.0618-0.0464 0.248 0.333 0.204 0.415 0.596 0.926 1.04 1.35 0.846 0.817 1.15 1.42 1.33 2.6 0.137 0.939 0.0104 2.17-0.255 2.49-0.495 0.597-1.95-0.649-2.5-2.14-0.108-0.292-0.209-0.547-0.224-0.568-0.0648-0.0898-0.744 0.505-0.829 0.726-0.124 0.323 0.0727 1.51 0.335 2.02 0.534 1.04 1.7 1.74 2.74 1.66 0.391-0.0324 0.724-0.138 0.943-0.3 0.186-0.138 0.355-0.233 0.376-0.213 0.0426 0.043-0.242 0.647-0.554 1.17-0.241 0.408-0.21 0.468 0.299 0.588 0.44 0.104 1.02 0.031 1.49-0.188zm-0.24-7c-0.252-0.53-0.177-1.73 0.162-2.62 0.259-0.679 1.25-1.87 1.41-1.71 0.0517 0.0512 0.0909 0.676 0.0871 1.39-0.0058 1.07-0.0503 1.41-0.258 1.94-0.242 0.616-0.861 1.42-1.1 1.42-0.0622 0-0.2-0.183-0.306-0.406zm-7.49-0.055c-0.505-0.253-1.07-0.937-1.31-1.57-0.189-0.511-0.175-1.5 0.0348-2.45 0.142-0.648 0.157-0.933 0.0648-1.31l-0.117-0.48 0.241 0.333c0.132 0.183 0.648 0.733 1.15 1.22 1.15 1.13 1.4 1.61 1.45 2.78 0.0752 1.55-0.416 2.03-1.51 1.48zm5.18-2.96c-0.533-0.589-0.718-1.9-0.417-2.96 0.152-0.531 0.511-0.98 1.31-1.64l0.355-0.292 0.143 0.403c0.0863 0.243 0.143 0.932 0.143 1.74 0 1.16-0.0339 1.41-0.255 1.89-0.452 0.98-0.898 1.28-1.28 0.858zm-9.26-2.02c-0.537-0.126-1.29-0.606-1.75-1.12-0.565-0.626-0.946-1.5-1.08-2.47-0.089-0.652-0.171-0.866-0.435-1.14-0.448-0.466-0.407-0.552 0.103-0.215 0.235 0.156 0.914 0.455 1.51 0.664 1.25 0.442 1.7 0.693 2.17 1.23 0.482 0.549 0.681 1.1 0.695 1.91 0.0095 0.559-0.032 0.748-0.199 0.908-0.274 0.263-0.572 0.331-1.01 0.229zm5.67-0.368c-0.688-0.398-1.38-1.6-1.46-2.54-0.195-2.15 1.69-2.69 2.53-0.734 0.446 1.04 0.404 2.69-0.0814 3.22-0.202 0.224-0.647 0.247-0.985 0.0516zm7.05-2.55c-0.0752-0.138-0.158-0.705-0.183-1.26-0.0528-1.15 0.114-1.68 0.752-2.41 0.543-0.618 0.633-0.551 0.724 0.533 0.111 1.33-0.0641 2.31-0.537 3.03-0.278 0.421-0.563 0.464-0.756 0.112zm-12.3-2.53c-1.24-0.898-1.86-2.83-1.21-3.78 0.283-0.42 0.631-0.546 1.18-0.427 1.21 0.266 2.18 2.63 1.62 3.96-0.094 0.225-0.232 0.448-0.306 0.495-0.291 0.185-0.833 0.0818-1.28-0.245zm9.15-0.57c-0.686-0.816-0.963-1.87-0.791-3.02 0.166-1.11 1.11-1.53 1.88-0.847 1.2 1.05 0.875 4.22-0.431 4.22-0.277 0-0.442-0.0867-0.662-0.348zm-14.5-1.43c-0.545-0.288-1.29-1.13-1.56-1.76-0.124-0.288-0.255-0.893-0.289-1.34l-0.0632-0.819-1.13-0.527 1.28-0.0011c1.15-9.76e-4 1.34 0.0274 1.85 0.282 1 0.498 1.59 1.58 1.59 2.91-5.68e-4 1.02-0.265 1.47-0.859 1.47-0.23-0.0027-0.596-0.0988-0.813-0.213zm9.27-1.55c-0.996-0.607-1.68-2.31-1.38-3.43 0.141-0.525 0.617-0.908 1.13-0.908 1.41-2e-3 2.38 3.18 1.32 4.31-0.276 0.296-0.608 0.305-1.06 0.0272zm-14.9-0.645c-0.686-0.175-1.82-1.27-2.2-2.12-0.134-0.302-0.248-0.843-0.274-1.3-0.0693-1.2-0.0904-1.24-0.729-1.61-0.71-0.407-0.505-0.432 0.879-0.11 1.59 0.37 2.33 0.8 2.87 1.66 0.537 0.851 0.759 2.21 0.487 2.98-0.173 0.497-0.466 0.635-1.04 0.489zm23.8-0.416c-0.996-0.697-1.01-3.5-0.0195-3.98 1.23-0.596 1.96 1.35 1.19 3.16-0.206 0.478-0.648 0.983-0.861 0.983-0.0393 0-0.176-0.0735-0.305-0.163zm5.07-1.97c-0.342-0.795-0.289-2.24 0.108-2.95 0.289-0.514 0.528-0.589 0.826-0.26 0.254 0.281 0.266 1.96 0.0187 2.65-0.194 0.544-0.522 1.13-0.631 1.13-0.0404 0-0.185-0.26-0.322-0.578zm-19.3-0.44c-1.6-0.793-2.27-3.61-1.01-4.27 0.418-0.216 0.61-0.205 1.18 0.0726 1.22 0.591 1.81 3.23 0.917 4.12-0.377 0.377-0.469 0.384-1.09 0.0752zm9.38-0.434c-0.213-0.187-0.54-0.645-0.726-1.02-0.714-1.43-0.279-3.09 0.812-3.09 1.42 0 2.27 2.74 1.27 4.14-0.309 0.433-0.844 0.42-1.36-0.0337zm7.78-1.24c-0.579-0.884-0.4-3.04 0.27-3.25 0.6-0.19 1.12 1.1 0.881 2.17-0.134 0.59-0.594 1.33-0.824 1.33-0.0894 0-0.237-0.113-0.327-0.251zm-23.1-1.2c-1.02-0.675-1.63-1.73-1.63-2.84-2e-3 -0.574 0.0435-0.741 0.278-1.02 0.379-0.451 0.81-0.531 1.41-0.261 0.876 0.395 1.46 1.28 1.67 2.51 0.133 0.776 0.0116 1.46-0.319 1.79-0.276 0.276-0.842 0.207-1.41-0.171zm9.8-0.909c-1.72-1.31-1.36-4.57 0.449-4.08 0.865 0.233 1.45 1.34 1.45 2.75 0 1.57-0.832 2.15-1.9 1.34zm10-0.827c-0.58-0.211-1.2-1.18-1.3-2.03-0.162-1.37 0.297-2.23 1.19-2.23 0.874 0 1.46 0.944 1.46 2.35 0 0.831-0.183 1.36-0.594 1.7-0.336 0.283-0.455 0.315-0.762 0.203zm6.03-0.616c-0.157-0.287-0.197-0.625-0.197-1.64 0-1.16 0.0261-1.32 0.279-1.78 0.32-0.573 0.629-0.68 0.949-0.326 0.187 0.207 0.216 0.407 0.216 1.48-1.46e-4 1.09-0.0323 1.3-0.263 1.74-0.288 0.549-0.555 0.889-0.696 0.889-0.0501 0-0.18-0.162-0.288-0.361zm-31.7-0.25c-0.585-0.254-1.53-1.23-1.82-1.87-0.184-0.414-0.258-0.794-0.261-1.34-0.0047-0.72 0.0139-0.776 0.358-1.08 1.03-0.924 2.66 0.322 3.02 2.31 0.176 0.973-0.0311 1.8-0.508 2.01-0.338 0.154-0.347 0.154-0.795-0.0409zm10.9-1.69c-0.382-0.072-1.36-1.1-1.66-1.74-0.761-1.63 0.203-3.26 1.52-2.57 1.09 0.57 1.77 2.46 1.31 3.66-0.164 0.431-0.557 0.776-0.823 0.724-0.043-0.0083-0.198-0.0378-0.345-0.0655zm9.43-0.361c-0.956-0.505-1.64-2.27-1.33-3.42 0.171-0.636 0.492-0.914 1.06-0.914 1.05 9.62e-4 1.78 1.03 1.78 2.5 3e-3 0.954-0.0813 1.27-0.452 1.71-0.331 0.393-0.503 0.413-1.05 0.123zm9.11-0.785c-0.0988-0.0555-0.295-0.365-0.436-0.687-0.489-1.12-0.25-2.77 0.426-2.94 0.522-0.131 1.02 0.75 1.02 1.8 0.0013 0.962-0.604 2.05-1.01 1.82zm-24.7-1.84c-1.02-0.447-2-1.92-2-3.02-1.09e-4 -0.714 0.173-1.11 0.572-1.32 1.27-0.656 2.73 0.805 2.85 2.84 0.042 0.739 0.0174 0.877-0.217 1.22-0.305 0.449-0.628 0.522-1.2 0.27zm9.93-1.1c-0.815-0.489-1.37-1.53-1.37-2.59-0.0084-1.02 0.451-1.58 1.29-1.58 1.17 0 2.13 1.8 1.8 3.36-0.223 1.04-0.841 1.33-1.71 0.806zm10.7-0.0774c-0.773-0.426-1.5-1.66-1.5-2.54 0.0013-1.18 0.454-1.84 1.26-1.83 0.624 0.0039 1.01 0.289 1.36 1 0.544 1.11 0.466 2.54-0.174 3.18-0.336 0.336-0.584 0.385-0.944 0.186zm6.85-0.0551c-0.311-0.581-0.697-2.28-0.803-3.53-0.162-1.91-0.412-3.38-0.771-4.52-0.171-0.544-0.276-0.989-0.234-0.989 0.117 0 0.953 1.52 1.28 2.33 0.333 0.822 0.756 2.44 0.953 3.66 0.144 0.884 0.0824 1.98-0.157 2.79-0.134 0.454-0.156 0.475-0.27 0.262zm-35.1-1.27c-0.458-0.131-1.31-0.898-1.66-1.48-0.843-1.44-0.466-3.06 0.711-3.06 0.982 0.0014 1.92 1.08 2.22 2.56 0.103 0.499 0.095 0.716-0.043 1.18-0.235 0.79-0.559 1-1.23 0.809zm21.7-2.79c-0.683-0.627-1.04-1.39-1.04-2.23-0.0018-1.07 0.356-1.52 1.2-1.52 0.635 0 1.13 0.377 1.52 1.16 0.28 0.56 0.331 0.794 0.333 1.52 0.0037 1.12-0.218 1.47-0.977 1.52-0.47 0.0309-0.556-0.0062-1.03-0.444zm10.1 0.122c-0.724-0.724-1.02-2.72-0.476-3.26 0.638-0.638 1.6 0.597 1.6 2.04-0.0032 0.677-0.355 1.45-0.659 1.45-0.125 0-0.333-0.105-0.461-0.233zm-19.4-0.0832c-0.515-0.316-1.26-1.19-1.51-1.76-0.413-0.963-0.242-2.28 0.335-2.59 0.385-0.206 0.943-0.127 1.47 0.209 0.904 0.573 1.5 2.22 1.27 3.49-0.15 0.797-0.853 1.09-1.57 0.651zm-18.1-0.0347c-0.404-0.222-0.96-0.809-1.19-1.25-0.259-0.502-0.374-1.48-0.263-2.22 0.101-0.676 0.656-1.29 1.17-1.29 1.08 0 1.83 1.12 1.83 2.72 0 0.965-0.181 1.52-0.614 1.89-0.363 0.306-0.584 0.342-0.929 0.152zm10.5-1.55c-0.561-0.163-1.34-0.933-1.7-1.69-0.509-1.05-0.515-1.92-0.0179-2.42 0.368-0.368 0.88-0.428 1.49-0.173 1.29 0.537 2.1 3.28 1.23 4.15-0.273 0.273-0.449 0.297-1 0.137zm21.7-1.46c-1.54-1.03-1.7-3.72-0.219-3.68 0.958 0.0251 1.81 1.21 1.83 2.55 0.0062 0.546-0.0435 0.769-0.225 1.01-0.315 0.423-0.86 0.471-1.38 0.122zm-9.31-1.32c-0.853-0.422-1.58-1.57-1.58-2.5 0-0.925 0.633-1.57 1.42-1.44 1.49 0.242 2.49 3.21 1.34 4.01-0.339 0.237-0.611 0.224-1.18-0.0578zm-18.3-0.197c-1.31-0.596-2.1-2-1.89-3.39 0.0431-0.288 0.186-0.615 0.341-0.783 0.552-0.595 1.7-0.23 2.36 0.75 0.439 0.653 0.585 1.15 0.586 2 7.27e-4 0.762-0.232 1.32-0.621 1.5-0.333 0.152-0.232 0.163-0.774-0.0835zm31.2-2.02c-0.261-0.129-0.653-0.442-0.871-0.694-1.1-1.27-1.2-2.52-0.203-2.52 0.825 0 1.72 0.733 2.23 1.83 0.611 1.31 0.0525 1.98-1.15 1.38zm-8.83-0.66c-1.22-0.644-2.04-2.23-1.59-3.09 0.235-0.454 0.552-0.605 1.13-0.54 1.1 0.124 2.13 1.45 2.15 2.76 0.0096 1.01-0.713 1.38-1.69 0.87zm3.84-2.88c-0.915-0.215-1.86-1.07-2.15-1.95-0.49-1.49 1.99-1.03 2.88 0.525 0.357 0.623 0.432 1.1 0.201 1.28-0.224 0.179-0.559 0.23-0.935 0.142zm2.23-2.24c-0.85-0.56-2.19-1.41-2.99-1.89-0.792-0.479-1.39-0.87-1.32-0.87 0.669 0 3.08 1.27 4.34 2.28 0.824 0.663 1.7 1.5 1.57 1.5-0.0327 0-0.755-0.458-1.61-1.02zm-8.32-1.58c-0.662-0.21-1.07-0.45-1.46-0.863-0.764-0.801-0.521-1.43 0.556-1.43 0.834 0 1.54 0.275 2.18 0.844 0.652 0.586 0.846 1.02 0.606 1.37-0.135 0.192-0.274 0.232-0.796 0.226-0.348-0.00409-0.833-0.0707-1.08-0.148zm-12.6 53.2c-0.552-0.404-1.42-1.26-1.78-1.74-0.758-1.03-1.6-0.457-0.881 0.603 0.609 0.898 1.47 1.35 2.6 1.37l0.389 0.0076zm14.2-0.295c0.252-0.115 0.489-0.258 0.527-0.319 0.0398-0.0644-0.269-0.192-0.736-0.305-1.28-0.309-2.03-0.746-2.97-1.73-0.458-0.481-0.896-0.874-0.972-0.874-0.0763 0-0.233 0.0946-0.349 0.21-0.507 0.507 0.234 2 1.32 2.65 0.997 0.6 2.34 0.757 3.18 0.373zm-6.18-0.989c0-0.0499-0.275-0.205-0.611-0.344-0.749-0.31-1.59-1.05-2.18-1.92-0.37-0.545-0.494-0.65-0.768-0.65-0.227 0-0.383 0.086-0.512 0.283-0.16 0.244-0.166 0.347-0.0473 0.75 0.25 0.846 0.884 1.46 1.88 1.81 0.441 0.158 2.24 0.208 2.24 0.0627zm-6.93-1.98c0.123-0.489-0.059-0.804-0.76-1.31-0.715-0.52-1.33-0.722-1.63-0.532-0.381 0.24-0.284 0.839 0.231 1.42 0.792 0.902 1.98 1.13 2.16 0.422zm-6.03-1.39c0.236-0.373-0.0234-0.744-0.956-1.37-0.503-0.336-0.969-0.612-1.04-0.612-0.0675 0-0.212 0.0993-0.322 0.221-0.188 0.208-0.189 0.247-0.0158 0.702 0.347 0.909 1.5 1.69 2.01 1.37 0.119-0.0772 0.264-0.216 0.322-0.308zm13.6-0.647c0.446-0.216 1.16-0.933 1.04-1.05-0.0238-0.0238-0.293 0.0048-0.599 0.0637-1.56 0.301-3.11-0.46-4.37-2.15-0.82-1.1-1.05-1.2-1.3-0.593-0.187 0.448-0.0827 1.12 0.288 1.84 0.912 1.79 3.28 2.69 4.94 1.88zm-20.6-1.16c0-0.0272-0.354-0.236-0.787-0.463-0.606-0.319-1.01-0.652-1.74-1.45-0.953-1.03-1.25-1.21-1.56-0.903-0.285 0.285-0.14 0.656 0.512 1.31 0.694 0.694 1.46 1.14 2.38 1.39 0.575 0.155 1.19 0.218 1.19 0.122zm13.9-0.17c0.104-0.0566-0.194-0.249-0.906-0.587-1.13-0.536-1.88-1.14-2.45-1.97-0.189-0.276-0.421-0.563-0.516-0.638-0.487-0.382-1.19 0.154-1.08 0.824 0.198 1.22 1.3 2.23 2.71 2.48 0.566 0.0997 1.98 0.0308 2.24-0.109zm-6.65-1.09c0-0.0459-0.238-0.208-0.528-0.361-0.785-0.412-1.48-1.17-2.01-2.19-0.412-0.794-0.514-0.917-0.766-0.917-0.447 0-0.698 0.296-0.695 0.823 0.0059 1.1 0.945 2.28 2.11 2.63 0.366 0.111 1.89 0.128 1.89 0.0203zm-8.21-3.07c-0.267-0.272-0.715-0.952-1.01-1.53-0.405-0.799-0.597-1.06-0.832-1.15-0.26-0.0926-0.337-0.07-0.516 0.15-0.242 0.299-0.204 0.577 0.186 1.36 0.429 0.858 1.54 1.65 2.32 1.65l0.329 0.0024zm-5.55-0.533c-0.247-0.327-0.584-0.894-0.749-1.26-0.573-1.27-0.97-1.56-1.43-1.06-0.17 0.188-0.177 0.269-0.0579 0.639 0.283 0.876 1.27 1.87 2.17 2.19 0.241 0.0848 0.455 0.139 0.475 0.121 0.0208-0.0182-0.164-0.301-0.412-0.628zm15.5-0.806c0-0.0279-0.362-0.262-0.804-0.52-1.05-0.615-1.76-1.29-2.27-2.17-0.449-0.767-0.736-0.938-1.21-0.722-1.14 0.52 0.0237 2.68 1.74 3.22 0.638 0.202 2.55 0.343 2.55 0.188zm-7.78-2.84c0.387-0.387 0.268-0.825-0.434-1.59-0.333-0.365-1.01-0.74-1.34-0.74-0.123 0-0.307 0.126-0.408 0.28-0.17 0.26-0.17 0.314-0.0012 0.757 0.195 0.511 0.694 1.05 1.24 1.33 0.449 0.236 0.68 0.227 0.944-0.0382zm-5.6-0.479c-1.37-0.864-1.88-1.44-2.29-2.59-0.29-0.82-0.583-1.06-1.05-0.844-0.528 0.241-0.505 1.31 0.0475 2.18 0.564 0.89 1.57 1.39 2.78 1.39 0.603-0.0014 0.687-0.0236 0.512-0.134zm-6.19-0.605c-0.298-0.469-0.584-1.27-0.988-2.78-0.15-0.559-0.497-0.79-0.88-0.586-0.195 0.104-0.236 0.229-0.236 0.712 0 1.01 0.838 2.31 1.91 2.96 0.534 0.326 0.563 0.28 0.191-0.305zm18.8-0.744c0.0966-0.0597-0.0432-0.155-0.423-0.289-0.86-0.303-1.73-0.84-2.47-1.52-0.792-0.734-1.11-1.25-1.43-2.33-0.342-1.16-0.836-1.44-1.46-0.818-0.286 0.286-0.325 0.403-0.325 0.985 0 0.534 0.0753 0.811 0.393 1.45 0.858 1.71 2.67 2.73 4.72 2.65 0.462-0.0182 0.905-0.0733 0.984-0.122zm-8.16-2.82c-0.0581-0.0505-0.431-0.319-0.828-0.597-1.01-0.706-1.71-1.49-2.17-2.44-0.422-0.872-0.624-1.09-1.01-1.09-0.709 0-1.04 0.989-0.631 1.91 0.494 1.12 1.52 1.81 3.14 2.13 0.945 0.186 1.65 0.23 1.49 0.093zm-7.16-1.63c0-0.0314-0.222-0.329-0.492-0.662-0.762-0.936-1.06-1.52-1.25-2.47-0.19-0.948-0.38-1.26-0.768-1.26-0.416 0-0.713 0.494-0.713 1.19 0 0.972 0.535 1.98 1.35 2.55 0.584 0.404 1.87 0.856 1.87 0.655zm-6.5-1.36c-0.307-0.735-0.497-1.61-0.563-2.6-0.0892-1.35-0.163-1.54-0.593-1.54-0.664 0-0.868 0.961-0.458 2.15 0.243 0.707 0.518 1.15 1.1 1.76 0.419 0.444 0.647 0.542 0.514 0.222zm10.5-3.55c-1.25-1.16-1.73-1.95-2.05-3.39-0.0873-0.395-0.529-0.687-0.9-0.594-0.774 0.194-0.938 1.6-0.32 2.73 0.662 1.22 2.19 2.08 3.7 2.1l0.491 0.0073zm-6.34-2.78c-0.504-0.793-0.696-1.59-0.682-2.82 0.0129-1.2-0.0914-1.46-0.59-1.46-0.387 0-0.671 0.322-0.841 0.954-0.331 1.23 0.363 2.69 1.68 3.53 0.715 0.456 0.825 0.404 0.438-0.205zm-5.29-2.34c-0.0465-0.718-0.0107-1.22 0.136-1.9 0.199-0.92 0.199-0.922-0.036-1.16-0.199-0.199-0.277-0.216-0.512-0.109-0.443 0.202-0.665 0.751-0.66 1.64 0.0048 0.86 0.241 1.53 0.755 2.14 0.167 0.198 0.32 0.36 0.342 0.36 0.0212 0 0.01-0.439-0.0247-0.975zm10.1-1.44c-0.0204-0.0458-0.202-0.421-0.404-0.834-0.47-0.962-0.704-2.09-0.664-3.21 0.0275-0.77 0.0035-0.907-0.184-1.04-0.289-0.212-0.424-0.2-0.766 0.0693-0.821 0.646-0.634 2.62 0.369 3.88 0.46 0.581 1.82 1.52 1.65 1.14zm-6.45-5.94c0.109-4.45 1.54-8.5 4.33-12.3 0.4-0.54 1.35-1.59 2.1-2.34s1.35-1.36 1.33-1.36c-0.145 0-1.79 0.735-2.4 1.07-2.16 1.19-3.63 2.75-4.78 5.04-0.598 1.19-1.13 2.77-1.35 4-0.182 1.03-0.187 4.04-0.0073 4.94 0.171 0.869 0.589 2.28 0.675 2.28 0.0369-1.28e-4 0.0822-0.613 0.1-1.36zm1.4-2.4c0.609-1.21 1.77-2.95 2.9-4.35 2.05-2.53 3.19-4.19 4.05-5.88 0.471-0.934 1.14-2.57 1.07-2.64-0.127-0.127-1.86 1.21-2.91 2.24-2.74 2.7-4.78 6.35-5.42 9.67-0.205 1.07-0.314 1.94-0.242 1.94 0.0288 0 0.274-0.442 0.546-0.983zm2.99-2.43c3.33-2.88 4.72-4.56 5.62-6.82 0.546-1.37 1.07-3.87 0.813-3.87-0.0553 0-0.289 0.438-0.519 0.972-0.727 1.69-2.35 4.51-3.56 6.19-0.264 0.367-1.04 1.34-1.72 2.17-1.82 2.2-1.92 2.33-1.83 2.33 0.043 0 0.584-0.438 1.2-0.972zm-12.9-0.455c1.07-0.357 2.12-0.738 2.33-0.846 0.319-0.161 2.5-1.46 2.66-1.58 0.299-0.231-1.74 0.242-3.1 0.719-1.19 0.417-2.75 1.29-3.78 2.13-0.153 0.123-0.226 0.225-0.163 0.227 0.063 0.0014 0.988-0.29 2.06-0.647zm33.6-5.78c-0.239-1.42-0.672-3.13-0.996-3.93-0.445-1.1-0.97-1.85-1.93-2.77-1.46-1.38-3.57-2.31-5.28-2.32-0.701-0.0018-1.51 0.191-1.51 0.358 0 0.0564 0.212 0.184 0.472 0.283 1.77 0.678 3.5 1.74 4.89 3.02 1.25 1.14 3.24 4.07 3.95 5.82 0.177 0.435 0.364 0.891 0.414 1.01 0.185 0.446 0.184-0.381-2e-3 -1.49zm1.82-0.946c0.284-1.64 0.312-4.03 0.0586-5.01-0.54-2.07-2.35-3.75-4.7-4.34-1.06-0.268-1.05-0.145 6e-3 0.38 1.08 0.535 2.26 1.54 2.71 2.3 0.28 0.477 0.748 1.6 0.668 1.6-0.0222 0-0.179-0.21-0.349-0.466-1.02-1.55-2.92-2.88-4.77-3.36-0.707-0.183-2.84-0.238-2.84-0.0742 0 0.0532 0.388 0.234 0.861 0.402 1.03 0.365 2.84 1.25 3.56 1.74 0.82 0.558 2.05 1.84 2.67 2.79 0.892 1.37 1.42 2.94 1.63 4.84 0.0431 0.388 0.12 0.663 0.171 0.611 0.0509-0.0514 0.195-0.687 0.321-1.41zm-5.28 1.05c-0.0581-0.0557-1.03-0.612-2.16-1.24-1.13-0.624-2.41-1.36-2.83-1.64-0.976-0.627-2.51-1.85-3.16-2.52-0.547-0.562-0.671-0.616-0.671-0.291 0 0.55 0.488 1.49 1.13 2.18 1.17 1.25 2.41 1.91 5.53 2.94 1.95 0.646 2.36 0.752 2.16 0.561zm-1-2.76c-1.13-1.94-2.91-3.59-4.79-4.43-0.47-0.212-0.849-0.296-1.37-0.304-0.704-0.0114-0.723-0.0041-0.757 0.285-0.0718 0.621 0.854 1.84 1.98 2.61 1.04 0.709 5.13 2.64 5.2 2.46 0.0206-0.0507-0.1-0.329-0.269-0.619zm-20.9-0.145c0.412-0.0782 0.75-0.184 0.75-0.234 0-0.0506-0.288-0.0919-0.64-0.0919-1.52 0-3.39-0.304-7.86-1.28-0.323-0.0702-0.326-0.0666-0.111 0.111 0.649 0.535 2.77 1.37 4.1 1.61 0.729 0.131 2.8 0.0676 3.76-0.116zm1.58-2.11c0.55-0.0663 1.05-0.166 1.11-0.222 0.0667-0.064 0.0667-0.101 0-0.101-0.058-9e-6 -1.16-0.148-2.44-0.33-3.77-0.533-7.94-0.88-7.94-0.661 0 0.145 3.11 0.974 4.72 1.26 1.09 0.192 3.21 0.218 4.56 0.0555zm5.83-1.7c0-0.0247-0.276-0.201-0.613-0.391-1.23-0.691-2.83-2.45-3.55-3.89l-0.303-0.604 0.707 0.643c0.841 0.765 1.68 1.36 2.6 1.81 0.741 0.374 2.58 0.98 2.68 0.882 0.0344-0.0344-0.183-0.187-0.483-0.339-1.42-0.722-3.14-2.5-4.09-4.23l-0.413-0.752 0.812 0.793c0.857 0.837 2.16 1.76 3.27 2.31 0.748 0.372 2.28 0.945 2.35 0.877 0.0243-0.0243-0.442-0.388-1.04-0.809-1.75-1.24-3.34-2.87-4.33-4.43-0.235-0.372-0.135-0.337 0.52 0.184 0.417 0.331 3.05 1.57 3.22 1.51 0.178-0.0635-1.93-3.41-4.22-6.7-1.25-1.8-2.32-3.27-2.36-3.27-0.15-0.0078-0.0873 2.04 0.0953 3.12 0.0983 0.576 0.339 1.61 0.534 2.29l0.356 1.24-0.288-0.242c-0.337-0.283-0.915-0.93-1.45-1.62l-0.38-0.492-0.0819 0.381c-0.188 0.872 0.346 3.4 1.03 4.87 0.18 0.389 0.328 0.729 0.328 0.757 0 0.126-0.272-0.156-1.07-1.1l-0.859-1.02 0.0738 0.776c0.259 2.72 2.06 5.36 4.56 6.68 0.899 0.474 2.4 0.958 2.4 0.773zm-6.78-0.745c0-0.0677-0.254-0.442-0.563-0.831-0.621-0.78-0.666-0.801-2.38-1.1-1.14-0.199-3.51-0.232-4.67-0.0648-1.33 0.192-5.11 1.03-5.24 1.15-0.11 0.11 2.94 0.337 8.52 0.636 1.88 0.101 3.13 0.194 4.19 0.313 0.0764 0.0085 0.139-0.0399 0.139-0.108zm29.8-0.0968c1.66-0.426 3.48-1.41 5.07-2.74 0.979-0.821 2.48-2.37 2.39-2.47-0.0262-0.0262-0.488 0.275-1.03 0.67-2.27 1.67-4.17 2.82-6.78 4.13-0.565 0.283-1.03 0.539-1.03 0.569 0 0.113 0.549 0.047 1.38-0.165zm-1.86-3.07c0.724-0.281 1.67-0.637 2.09-0.791s2.69-1.03 5.04-1.94c4.39-1.71 5.37-2.06 7.34-2.65 0.634-0.191 1.11-0.389 1.06-0.439-0.192-0.179-2.12-0.556-3.48-0.679-2.26-0.206-5.04 0.136-7.37 0.907-1.4 0.463-3.46 1.48-4.86 2.42-1.22 0.811-2.89 2.18-2.89 2.37 0 0.0616 0.0375 0.0949 0.0833 0.0739s0.608-0.307 1.25-0.635c2.03-1.04 5.61-2.36 8.17-3 1.1-0.276 3.2-0.644 4.17-0.729 0.703-0.0615 0.687-0.0532-0.611 0.319-4.24 1.22-7.77 2.65-9.83 4.01-0.73 0.481-1.68 1.26-1.54 1.27 0.0398 0.0025 0.665-0.225 1.39-0.506zm-13.3-1.9c0.124-2.49-0.591-4.95-2.02-6.98-0.542-0.764-1.8-1.99-2.42-2.36l-0.414-0.245v1.57l-0.674-0.624c-0.794-0.735-1.68-1.35-2.6-1.81-0.774-0.387-2.11-0.845-2.29-0.786-0.0677 0.0226 0.707 0.809 1.72 1.75 1.02 0.938 1.85 1.73 1.85 1.75 0 0.024-0.362-0.161-0.806-0.412-0.951-0.538-2.1-1.08-2.51-1.18-0.277-0.0695-0.269-0.0468 0.171 0.473 0.254 0.3 1.07 1.22 1.81 2.05 2.56 2.84 3.71 4.66 4.4 6.94 0.11 0.367 0.236 0.71 0.28 0.763 0.129 0.154 0.268-1.11 0.248-2.26-0.0226-1.27-0.237-2.32-0.751-3.7-0.369-0.989-0.373-1.01-0.102-0.69 1.15 1.37 2.23 3.71 2.44 5.3 0.0391 0.295 0.121 0.567 0.182 0.605 0.0725 0.0448 0.0906-0.501 0.0524-1.59-0.0601-1.71-0.33-3.04-0.855-4.23-0.117-0.265-0.19-0.483-0.162-0.483 0.147 0 1.19 1.79 1.48 2.53 0.553 1.43 0.718 2.51 0.659 4.29-0.0488 1.47-0.0424 1.53 0.105 1.06 0.0864-0.275 0.185-1.06 0.219-1.75zm6.7-0.803c0.291-0.57 0.556-1.7 0.548-2.34-0.0053-0.43-0.0428-0.344-0.267 0.611-0.144 0.611-0.34 1.33-0.437 1.6-0.193 0.533-0.2 0.569-0.122 0.569 0.0293 0 0.155-0.198 0.278-0.441zm-1.31-1.26c0.593-0.866 1.04-1.94 1.27-3.08 0.249-1.23 0.167-3.25-0.222-5.44-0.156-0.88-0.285-1.87-0.285-2.19 0-0.327-0.0424-0.594-0.0942-0.594-0.136 0-1.26 2.22-1.72 3.4-0.509 1.3-0.957 3-1.51 5.72-0.245 1.2-0.476 2.26-0.514 2.36-0.145 0.379 0.142 0.148 0.711-0.572 0.678-0.858 1.71-2.89 1.95-3.84 0.0906-0.357 0.2-0.682 0.243-0.722 0.0431-0.0399 0.0439 0.527 0.0018 1.26-0.0829 1.44-0.362 2.92-0.792 4.18-0.15 0.441-0.273 0.828-0.273 0.86 0 0.147 0.845-0.774 1.24-1.35z"/>
	</g>
</svg>
