<svg xmlns="http://www.w3.org/2000/svg" viewBox="0 0 100 100">
	<g id="snek-food">
		<path d="m61.7 91.2c-3.29-0.417-9.11-2.58-16.1-5.98-6.67-3.24-11.4-6.01-14.9-8.69-1.61-1.25-4.83-4.42-5.94-5.87-3.82-4.97-5.71-9.94-5.96-15.7-0.195-4.43 0.913-9.07 2.92-12.2 0.206-0.322 0.374-0.61 0.374-0.639 0-0.244-2.68 0.383-4.14 0.969-2.84 1.14-4.99 3.17-6.04 5.69l-0.319 0.767-0.135-0.323c-0.262-0.627-0.404-1.86-0.336-2.93 0.207-3.3 2-6.24 5.05-8.32 1.6-1.09 3.56-1.82 6.3-2.36 0.974-0.191 1.81-0.388 1.87-0.437 0.0525-0.0493-0.248-0.12-0.667-0.158-1.46-0.131-2.99-0.388-3.98-0.672-1.25-0.357-3.43-1.43-4.41-2.17-1.63-1.23-3.19-3.05-4.06-4.73-0.647-1.25-1.26-3.21-0.949-3.01 0.0476 0.0294 0.503 0.11 1.01 0.18 1.28 0.175 3.88-0.361 5.38-0.744 1.5-0.384 1.97-0.698 3.96-0.753 1.99-0.0541 3.22 0.153 3.83 0.308 0.421 0.107 0.789 0.172 0.816 0.145 0.0275-0.0275-0.0485-0.316-0.169-0.641-0.58-1.57-0.904-4.87-0.447-7.13 0.457-2.26 1.23-4.2 1.53-5.62 0.303-1.41 1.02-3.89 1.79-4.83l0.337-0.409 0.448 0.583c0.837 1.09 1.44 1.65 2.99 2.51s2.68 0.914 5.39 2.03c2.72 1.12 4.08 3.25 4.98 5.03l0.497 0.989 0.0748-0.435c0.385-2.24 0.786-3.61 1.51-5.15 0.95-2.03 2.85-4.42 4.39-5.52 0.707-0.505 1.78-1.02 1.89-0.902 0.035 0.035-0.0787 0.405-0.253 0.821-0.303 0.726-0.316 0.829-0.308 2.48 0.0081 1.71 0.0115 1.74 0.628 4.17 0.341 1.34 0.675 2.8 0.742 3.24 0.165 1.08 0.147 3.7-0.0317 4.62-0.0798 0.412-0.116 0.75-0.0792 0.75 0.0363-8.4e-5 0.491-0.354 1.01-0.786 1.3-1.08 2.04-1.55 3.72-2.39 1.65-0.815 3.22-1.35 5.06-1.73 1.11-0.229 1.58-0.264 3.61-0.262 2.67 0.0019 3.72 0.15 5.61 0.79 2.34 0.792 4.59 2.08 5.77 3.3l0.377 0.393-0.998-0.0647c-2.44-0.158-5.1 0.699-7.52 2.43-0.876 0.626-3.74 3.15-3.74 3.3 0 0.0409 0.562 0.217 1.25 0.392 7.46 1.89 13.6 7.52 16.2 14.8 2.18 6.25 2.01 12.3-0.734 26.1-1.81 9.1-3.52 14.8-5.35 17.9-1.14 1.93-2.83 3.84-4.28 4.82-2.55 1.73-5.94 2.45-9.43 2.01zm12.9-12.8c1.78-5.47 4.78-18.4 4.79-27.9 0.0111-9.44-4.14-15.2-7.4-17.7-3.26-2.51-9.64-4.75-10.8-4.96 0 0-0.639-0.185-0.833-0.162-0.194 0.0227-1.02 0.527-2 0.904s-1.21 0.461-2.33 0.773l0.0767 0.6c0.0422 0.33 0.0569 0.858-0.0137 1.8-0.0705 0.945-0.369 2.41-0.369 2.41-0.432 2.15-1.15 4.02-2.12 5.54-0.505 0.787-1.29 1.68-1.37 1.57-2.13-2.84-2.75-3.27-7.02-4.88-2.15-0.809-3.32-1.61-4.14-2.07s-2.67 2-3.83 3.55c-1.15 1.55-2.38 3.08-2.65 5.85s0.859 7.36 2.26 10.3c1.4 2.91 3.04 5.59 8.15 8.73s7.35 4.98 11.2 8.8c3.86 3.82 3.81 3.91 6.8 7.75 2.99 3.84 4.01 4.42 5.58 5.04 1.57 0.622 2.86-0.852 3.84-1.66 0.973-0.809 1.68-2.87 2.14-4.3z"/>
	</g>
</svg>
