<svg xmlns="http://www.w3.org/2000/svg" viewBox="0 0 200 200">
  <g id="gong-icon" style="display:inline">
    <path d="M99.931 0A100 100 0 000 100a100 100 0 00100 100 100 100 0 00100-100A100 100 0 00100 0a100 100 0 00-.069 0zm.07 30A70 70 0 01170 100a70 70 0 01-70 70 70 70 0 01-70-70 70 70 0 0170-70zm0 5a10 10 0 00-10 10 10 10 0 0010 10A10 10 0 00110 45a10 10 0 00-10-10zm0 25A40 40 0 0060 100a40 40 0 0040 40 40 40 0 0040-40 40 40 0 00-40-40zm0 85a10 10 0 00-10 10 10 10 0 0010 10A10 10 0 00110 155a10 10 0 00-10-10z"/>
  </g>
</svg>
